<svg width="104" height="27" viewBox="0 0 104 27" fill="none" xmlns="http://www.w3.org/2000/svg">
<path d="M34.416 2.44C35.008 2.44 35.5253 2.55467 35.968 2.784C36.416 3.008 36.76 3.33333 37 3.76C37.2453 4.18133 37.368 4.67467 37.368 5.24C37.368 5.80533 37.2453 6.296 37 6.712C36.76 7.128 36.416 7.448 35.968 7.672C35.5253 7.89067 35.008 8 34.416 8H32.6V2.44H34.416ZM34.416 7.256C35.0667 7.256 35.5653 7.08 35.912 6.728C36.2587 6.376 36.432 5.88 36.432 5.24C36.432 4.59467 36.2587 4.09067 35.912 3.728C35.5653 3.36533 35.0667 3.184 34.416 3.184H33.512V7.256H34.416ZM40.1839 8.072C39.7679 8.072 39.3919 7.97867 39.0559 7.792C38.7199 7.6 38.4559 7.33333 38.2639 6.992C38.0719 6.64533 37.9759 6.24533 37.9759 5.792C37.9759 5.344 38.0745 4.94667 38.2719 4.6C38.4692 4.25333 38.7385 3.98667 39.0799 3.8C39.4212 3.61333 39.8025 3.52 40.2239 3.52C40.6452 3.52 41.0265 3.61333 41.3679 3.8C41.7092 3.98667 41.9785 4.25333 42.1759 4.6C42.3732 4.94667 42.4719 5.344 42.4719 5.792C42.4719 6.24 42.3705 6.63733 42.1679 6.984C41.9652 7.33067 41.6879 7.6 41.3359 7.792C40.9892 7.97867 40.6052 8.072 40.1839 8.072ZM40.1839 7.28C40.4185 7.28 40.6372 7.224 40.8399 7.112C41.0479 7 41.2159 6.832 41.3439 6.608C41.4719 6.384 41.5359 6.112 41.5359 5.792C41.5359 5.472 41.4745 5.20267 41.3519 4.984C41.2292 4.76 41.0665 4.592 40.8639 4.48C40.6612 4.368 40.4425 4.312 40.2079 4.312C39.9732 4.312 39.7545 4.368 39.5519 4.48C39.3545 4.592 39.1972 4.76 39.0799 4.984C38.9625 5.20267 38.9039 5.472 38.9039 5.792C38.9039 6.26667 39.0239 6.63467 39.2639 6.896C39.5092 7.152 39.8159 7.28 40.1839 7.28ZM49.2934 3.592L47.9254 8H46.9654L46.0774 4.744L45.1894 8H44.2294L42.8534 3.592H43.7814L44.7014 7.136L45.6374 3.592H46.5894L47.4854 7.12L48.3974 3.592H49.2934ZM52.199 3.52C52.5457 3.52 52.855 3.592 53.127 3.736C53.4043 3.88 53.6203 4.09333 53.775 4.376C53.9297 4.65867 54.007 5 54.007 5.4V8H53.103V5.536C53.103 5.14133 53.0043 4.84 52.807 4.632C52.6097 4.41867 52.3403 4.312 51.999 4.312C51.6577 4.312 51.3857 4.41867 51.183 4.632C50.9857 4.84 50.887 5.14133 50.887 5.536V8H49.975V3.592H50.887V4.096C51.0363 3.91467 51.2257 3.77333 51.455 3.672C51.6897 3.57067 51.9377 3.52 52.199 3.52ZM56.0823 2.08V8H55.1703V2.08H56.0823ZM59.1917 8.072C58.7757 8.072 58.3997 7.97867 58.0637 7.792C57.7277 7.6 57.4637 7.33333 57.2717 6.992C57.0797 6.64533 56.9837 6.24533 56.9837 5.792C56.9837 5.344 57.0824 4.94667 57.2797 4.6C57.477 4.25333 57.7464 3.98667 58.0877 3.8C58.429 3.61333 58.8104 3.52 59.2317 3.52C59.653 3.52 60.0344 3.61333 60.3757 3.8C60.717 3.98667 60.9864 4.25333 61.1837 4.6C61.381 4.94667 61.4797 5.344 61.4797 5.792C61.4797 6.24 61.3784 6.63733 61.1757 6.984C60.973 7.33067 60.6957 7.6 60.3437 7.792C59.997 7.97867 59.613 8.072 59.1917 8.072ZM59.1917 7.28C59.4264 7.28 59.645 7.224 59.8477 7.112C60.0557 7 60.2237 6.832 60.3517 6.608C60.4797 6.384 60.5437 6.112 60.5437 5.792C60.5437 5.472 60.4824 5.20267 60.3597 4.984C60.237 4.76 60.0744 4.592 59.8717 4.48C59.669 4.368 59.4504 4.312 59.2157 4.312C58.981 4.312 58.7624 4.368 58.5597 4.48C58.3624 4.592 58.205 4.76 58.0877 4.984C57.9704 5.20267 57.9117 5.472 57.9117 5.792C57.9117 6.26667 58.0317 6.63467 58.2717 6.896C58.517 7.152 58.8237 7.28 59.1917 7.28ZM62.0773 5.776C62.0773 5.33333 62.1679 4.94133 62.3493 4.6C62.5359 4.25867 62.7866 3.99467 63.1013 3.808C63.4213 3.616 63.7733 3.52 64.1573 3.52C64.5039 3.52 64.8053 3.58933 65.0613 3.728C65.3226 3.86133 65.5306 4.02933 65.6853 4.232V3.592H66.6053V8H65.6853V7.344C65.5306 7.552 65.3199 7.72533 65.0533 7.864C64.7866 8.00267 64.4826 8.072 64.1413 8.072C63.7626 8.072 63.4159 7.976 63.1013 7.784C62.7866 7.58667 62.5359 7.31467 62.3493 6.968C62.1679 6.616 62.0773 6.21867 62.0773 5.776ZM65.6853 5.792C65.6853 5.488 65.6213 5.224 65.4933 5C65.3706 4.776 65.2079 4.60533 65.0053 4.488C64.8026 4.37067 64.5839 4.312 64.3493 4.312C64.1146 4.312 63.8959 4.37067 63.6933 4.488C63.4906 4.6 63.3253 4.768 63.1973 4.992C63.0746 5.21067 63.0133 5.472 63.0133 5.776C63.0133 6.08 63.0746 6.34667 63.1973 6.576C63.3253 6.80533 63.4906 6.98133 63.6933 7.104C63.9013 7.22133 64.1199 7.28 64.3493 7.28C64.5839 7.28 64.8026 7.22133 65.0053 7.104C65.2079 6.98667 65.3706 6.816 65.4933 6.592C65.6213 6.36267 65.6853 6.096 65.6853 5.792ZM67.4991 5.776C67.4991 5.33333 67.5898 4.94133 67.7711 4.6C67.9578 4.25867 68.2085 3.99467 68.5231 3.808C68.8431 3.616 69.1978 3.52 69.5871 3.52C69.8751 3.52 70.1578 3.584 70.4351 3.712C70.7178 3.83467 70.9418 4 71.1071 4.208V2.08H72.0271V8H71.1071V7.336C70.9578 7.54933 70.7498 7.72533 70.4831 7.864C70.2218 8.00267 69.9205 8.072 69.5791 8.072C69.1951 8.072 68.8431 7.976 68.5231 7.784C68.2085 7.58667 67.9578 7.31467 67.7711 6.968C67.5898 6.616 67.4991 6.21867 67.4991 5.776ZM71.1071 5.792C71.1071 5.488 71.0431 5.224 70.9151 5C70.7925 4.776 70.6298 4.60533 70.4271 4.488C70.2245 4.37067 70.0058 4.312 69.7711 4.312C69.5365 4.312 69.3178 4.37067 69.1151 4.488C68.9125 4.6 68.7471 4.768 68.6191 4.992C68.4965 5.21067 68.4351 5.472 68.4351 5.776C68.4351 6.08 68.4965 6.34667 68.6191 6.576C68.7471 6.80533 68.9125 6.98133 69.1151 7.104C69.3231 7.22133 69.5418 7.28 69.7711 7.28C70.0058 7.28 70.2245 7.22133 70.4271 7.104C70.6298 6.98667 70.7925 6.816 70.9151 6.592C71.0431 6.36267 71.1071 6.096 71.1071 5.792ZM77.2151 8.072C76.7991 8.072 76.4231 7.97867 76.0871 7.792C75.7511 7.6 75.4871 7.33333 75.2951 6.992C75.1031 6.64533 75.0071 6.24533 75.0071 5.792C75.0071 5.344 75.1058 4.94667 75.3031 4.6C75.5005 4.25333 75.7698 3.98667 76.1111 3.8C76.4525 3.61333 76.8338 3.52 77.2551 3.52C77.6765 3.52 78.0578 3.61333 78.3991 3.8C78.7405 3.98667 79.0098 4.25333 79.2071 4.6C79.4045 4.94667 79.5031 5.344 79.5031 5.792C79.5031 6.24 79.4018 6.63733 79.1991 6.984C78.9965 7.33067 78.7191 7.6 78.3671 7.792C78.0205 7.97867 77.6365 8.072 77.2151 8.072ZM77.2151 7.28C77.4498 7.28 77.6685 7.224 77.8711 7.112C78.0791 7 78.2471 6.832 78.3751 6.608C78.5031 6.384 78.5671 6.112 78.5671 5.792C78.5671 5.472 78.5058 5.20267 78.3831 4.984C78.2605 4.76 78.0978 4.592 77.8951 4.48C77.6925 4.368 77.4738 4.312 77.2391 4.312C77.0045 4.312 76.7858 4.368 76.5831 4.48C76.3858 4.592 76.2285 4.76 76.1111 4.984C75.9938 5.20267 75.9351 5.472 75.9351 5.792C75.9351 6.26667 76.0551 6.63467 76.2951 6.896C76.5405 7.152 76.8471 7.28 77.2151 7.28ZM82.6287 3.52C82.9754 3.52 83.2847 3.592 83.5567 3.736C83.834 3.88 84.05 4.09333 84.2047 4.376C84.3594 4.65867 84.4367 5 84.4367 5.4V8H83.5327V5.536C83.5327 5.14133 83.434 4.84 83.2367 4.632C83.0394 4.41867 82.77 4.312 82.4287 4.312C82.0874 4.312 81.8154 4.41867 81.6127 4.632C81.4154 4.84 81.3167 5.14133 81.3167 5.536V8H80.4047V3.592H81.3167V4.096C81.466 3.91467 81.6554 3.77333 81.8847 3.672C82.1194 3.57067 82.3674 3.52 82.6287 3.52ZM88.7421 4.336V6.776C88.7421 6.94133 88.7795 7.06133 88.8541 7.136C88.9341 7.20533 89.0675 7.24 89.2541 7.24H89.8141V8H89.0941C88.6835 8 88.3688 7.904 88.1501 7.712C87.9315 7.52 87.8221 7.208 87.8221 6.776V4.336H87.3021V3.592H87.8221V2.496H88.7421V3.592H89.8141V4.336H88.7421ZM92.9347 3.52C93.2707 3.52 93.5694 3.592 93.8307 3.736C94.0974 3.88 94.3054 4.09333 94.4547 4.376C94.6094 4.65867 94.6867 5 94.6867 5.4V8H93.7827V5.536C93.7827 5.14133 93.684 4.84 93.4867 4.632C93.2894 4.41867 93.02 4.312 92.6787 4.312C92.3374 4.312 92.0654 4.41867 91.8627 4.632C91.6654 4.84 91.5667 5.14133 91.5667 5.536V8H90.6547V2.08H91.5667V4.104C91.7214 3.91733 91.916 3.77333 92.1507 3.672C92.3907 3.57067 92.652 3.52 92.9347 3.52ZM99.89 5.688C99.89 5.85333 99.8793 6.00267 99.858 6.136H96.49C96.5167 6.488 96.6473 6.77067 96.882 6.984C97.1167 7.19733 97.4047 7.304 97.746 7.304C98.2367 7.304 98.5833 7.09867 98.786 6.688H99.77C99.6367 7.09333 99.394 7.42667 99.042 7.688C98.6953 7.944 98.2633 8.072 97.746 8.072C97.3247 8.072 96.946 7.97867 96.61 7.792C96.2793 7.6 96.018 7.33333 95.826 6.992C95.6393 6.64533 95.546 6.24533 95.546 5.792C95.546 5.33867 95.6367 4.94133 95.818 4.6C96.0047 4.25333 96.2633 3.98667 96.594 3.8C96.93 3.61333 97.314 3.52 97.746 3.52C98.162 3.52 98.5327 3.61067 98.858 3.792C99.1833 3.97333 99.4367 4.22933 99.618 4.56C99.7993 4.88533 99.89 5.26133 99.89 5.688ZM98.938 5.4C98.9327 5.064 98.8127 4.79467 98.578 4.592C98.3433 4.38933 98.0527 4.288 97.706 4.288C97.3913 4.288 97.122 4.38933 96.898 4.592C96.674 4.78933 96.5407 5.05867 96.498 5.4H98.938Z" fill="white"/>
<path d="M38.958 21.138H35.066L34.422 23H32.364L35.878 13.214H38.16L41.674 23H39.602L38.958 21.138ZM38.426 19.57L37.012 15.482L35.598 19.57H38.426ZM45.2275 16.364C45.4795 16.0093 45.8248 15.7153 46.2635 15.482C46.7115 15.2393 47.2202 15.118 47.7895 15.118C48.4522 15.118 49.0495 15.2813 49.5815 15.608C50.1228 15.9347 50.5475 16.4013 50.8555 17.008C51.1728 17.6053 51.3315 18.3007 51.3315 19.094C51.3315 19.8873 51.1728 20.592 50.8555 21.208C50.5475 21.8147 50.1228 22.286 49.5815 22.622C49.0495 22.958 48.4522 23.126 47.7895 23.126C47.2202 23.126 46.7162 23.0093 46.2775 22.776C45.8482 22.5427 45.4982 22.2487 45.2275 21.894V26.696H43.2675V15.244H45.2275V16.364ZM49.3295 19.094C49.3295 18.6273 49.2315 18.226 49.0355 17.89C48.8488 17.5447 48.5968 17.2833 48.2795 17.106C47.9715 16.9287 47.6355 16.84 47.2715 16.84C46.9168 16.84 46.5808 16.9333 46.2635 17.12C45.9555 17.2973 45.7035 17.5587 45.5075 17.904C45.3208 18.2493 45.2275 18.6553 45.2275 19.122C45.2275 19.5887 45.3208 19.9947 45.5075 20.34C45.7035 20.6853 45.9555 20.9513 46.2635 21.138C46.5808 21.3153 46.9168 21.404 47.2715 21.404C47.6355 21.404 47.9715 21.3107 48.2795 21.124C48.5968 20.9373 48.8488 20.6713 49.0355 20.326C49.2315 19.9807 49.3295 19.57 49.3295 19.094ZM54.9958 16.364C55.2478 16.0093 55.5931 15.7153 56.0318 15.482C56.4798 15.2393 56.9884 15.118 57.5578 15.118C58.2204 15.118 58.8178 15.2813 59.3498 15.608C59.8911 15.9347 60.3158 16.4013 60.6238 17.008C60.9411 17.6053 61.0998 18.3007 61.0998 19.094C61.0998 19.8873 60.9411 20.592 60.6238 21.208C60.3158 21.8147 59.8911 22.286 59.3498 22.622C58.8178 22.958 58.2204 23.126 57.5578 23.126C56.9884 23.126 56.4844 23.0093 56.0458 22.776C55.6164 22.5427 55.2664 22.2487 54.9958 21.894V26.696H53.0358V15.244H54.9958V16.364ZM59.0978 19.094C59.0978 18.6273 58.9998 18.226 58.8038 17.89C58.6171 17.5447 58.3651 17.2833 58.0478 17.106C57.7398 16.9287 57.4038 16.84 57.0398 16.84C56.6851 16.84 56.3491 16.9333 56.0318 17.12C55.7238 17.2973 55.4718 17.5587 55.2758 17.904C55.0891 18.2493 54.9958 18.6553 54.9958 19.122C54.9958 19.5887 55.0891 19.9947 55.2758 20.34C55.4718 20.6853 55.7238 20.9513 56.0318 21.138C56.3491 21.3153 56.6851 21.404 57.0398 21.404C57.4038 21.404 57.7398 21.3107 58.0478 21.124C58.3651 20.9373 58.6171 20.6713 58.8038 20.326C58.9998 19.9807 59.0978 19.57 59.0978 19.094ZM69.794 23.098C69.1127 23.098 68.4967 22.9813 67.946 22.748C67.4047 22.5147 66.9753 22.1787 66.658 21.74C66.3406 21.3013 66.1773 20.7833 66.168 20.186H68.268C68.296 20.5873 68.436 20.9047 68.688 21.138C68.9493 21.3713 69.304 21.488 69.752 21.488C70.2093 21.488 70.5687 21.3807 70.83 21.166C71.0913 20.942 71.222 20.6527 71.222 20.298C71.222 20.0087 71.1333 19.7707 70.956 19.584C70.7787 19.3973 70.5547 19.2527 70.284 19.15C70.0227 19.038 69.6587 18.9167 69.192 18.786C68.5573 18.5993 68.0393 18.4173 67.638 18.24C67.246 18.0533 66.9053 17.778 66.616 17.414C66.336 17.0407 66.196 16.546 66.196 15.93C66.196 15.3513 66.3407 14.8473 66.63 14.418C66.9193 13.9887 67.3253 13.662 67.848 13.438C68.3707 13.2047 68.968 13.088 69.64 13.088C70.648 13.088 71.4647 13.3353 72.09 13.83C72.7247 14.3153 73.0747 14.9967 73.14 15.874H70.984C70.9653 15.538 70.8207 15.2627 70.55 15.048C70.2887 14.824 69.9387 14.712 69.5 14.712C69.1173 14.712 68.8093 14.81 68.576 15.006C68.352 15.202 68.24 15.4867 68.24 15.86C68.24 16.1213 68.324 16.3407 68.492 16.518C68.6693 16.686 68.884 16.826 69.136 16.938C69.3973 17.0407 69.7613 17.162 70.228 17.302C70.8627 17.4887 71.3807 17.6753 71.782 17.862C72.1833 18.0487 72.5287 18.3287 72.818 18.702C73.1073 19.0753 73.252 19.5653 73.252 20.172C73.252 20.6947 73.1167 21.18 72.846 21.628C72.5753 22.076 72.1787 22.4353 71.656 22.706C71.1333 22.9673 70.5127 23.098 69.794 23.098ZM77.5132 16.854V20.606C77.5132 20.8673 77.5739 21.0587 77.6952 21.18C77.8259 21.292 78.0406 21.348 78.3392 21.348H79.2492V23H78.0172C76.3652 23 75.5392 22.1973 75.5392 20.592V16.854H74.6152V15.244H75.5392V13.326H77.5132V15.244H79.2492V16.854H77.5132ZM84.383 23.126C83.6363 23.126 82.9643 22.9627 82.367 22.636C81.7696 22.3 81.2983 21.8287 80.953 21.222C80.617 20.6153 80.449 19.9153 80.449 19.122C80.449 18.3287 80.6216 17.6287 80.967 17.022C81.3216 16.4153 81.8023 15.9487 82.409 15.622C83.0156 15.286 83.6923 15.118 84.439 15.118C85.1856 15.118 85.8623 15.286 86.469 15.622C87.0756 15.9487 87.5516 16.4153 87.897 17.022C88.2516 17.6287 88.429 18.3287 88.429 19.122C88.429 19.9153 88.247 20.6153 87.883 21.222C87.5283 21.8287 87.043 22.3 86.427 22.636C85.8203 22.9627 85.139 23.126 84.383 23.126ZM84.383 21.418C84.7376 21.418 85.069 21.334 85.377 21.166C85.6943 20.9887 85.9463 20.7273 86.133 20.382C86.3196 20.0367 86.413 19.6167 86.413 19.122C86.413 18.3847 86.217 17.82 85.825 17.428C85.4423 17.0267 84.971 16.826 84.411 16.826C83.851 16.826 83.3796 17.0267 82.997 17.428C82.6236 17.82 82.437 18.3847 82.437 19.122C82.437 19.8593 82.619 20.4287 82.983 20.83C83.3563 21.222 83.823 21.418 84.383 21.418ZM92.1067 16.448C92.3587 16.0373 92.6854 15.7153 93.0867 15.482C93.4974 15.2487 93.964 15.132 94.4867 15.132V17.19H93.9687C93.3527 17.19 92.886 17.3347 92.5687 17.624C92.2607 17.9133 92.1067 18.4173 92.1067 19.136V23H90.1467V15.244H92.1067V16.448ZM103.297 18.954C103.297 19.234 103.278 19.486 103.241 19.71H97.5709C97.6175 20.27 97.8135 20.7087 98.1589 21.026C98.5042 21.3433 98.9289 21.502 99.4329 21.502C100.161 21.502 100.679 21.1893 100.987 20.564H103.101C102.877 21.3107 102.448 21.9267 101.813 22.412C101.178 22.888 100.399 23.126 99.4749 23.126C98.7282 23.126 98.0562 22.9627 97.4589 22.636C96.8709 22.3 96.4089 21.8287 96.0729 21.222C95.7462 20.6153 95.5829 19.9153 95.5829 19.122C95.5829 18.3193 95.7462 17.6147 96.0729 17.008C96.3995 16.4013 96.8569 15.9347 97.4449 15.608C98.0329 15.2813 98.7095 15.118 99.4749 15.118C100.212 15.118 100.87 15.2767 101.449 15.594C102.037 15.9113 102.49 16.364 102.807 16.952C103.134 17.5307 103.297 18.198 103.297 18.954ZM101.267 18.394C101.258 17.89 101.076 17.4887 100.721 17.19C100.366 16.882 99.9322 16.728 99.4189 16.728C98.9335 16.728 98.5229 16.8773 98.1869 17.176C97.8602 17.4653 97.6595 17.8713 97.5849 18.394H101.267Z" fill="white"/>
<g clip-path="url(#clip0)">
<path d="M11.0351 3.17547C12.647 1.01055 14.8879 1 14.8879 1C14.8879 1 15.2212 3.03539 13.6199 4.99612C11.91 7.08975 9.96657 6.74716 9.96657 6.74716C9.96657 6.74716 9.60164 5.1006 11.0351 3.17547ZM10.1716 8.17295C11.0008 8.17295 12.5399 7.01139 14.5432 7.01139C17.9915 7.01139 19.348 9.51171 19.348 9.51171C19.348 9.51171 16.6948 10.894 16.6948 14.2481C16.6948 18.0318 20 19.3357 20 19.3357C20 19.3357 17.6896 25.9623 14.5688 25.9623C13.1355 25.9623 12.0212 24.978 10.5109 24.978C8.97188 24.978 7.4446 25.999 6.44987 25.999C3.60017 25.9991 0 19.7131 0 14.6602C0 9.68892 3.0473 7.08104 5.90555 7.08104C7.76367 7.08104 9.20559 8.17295 10.1716 8.17295Z" fill="white"/>
</g>
<defs>
<clipPath id="clip0">
<rect width="20" height="25" fill="white" transform="translate(0 1)"/>
</clipPath>
</defs>
</svg>
