<svg width="21" height="22" viewBox="0 0 21 22" fill="none" xmlns="http://www.w3.org/2000/svg">
<path d="M2.74902 19.8628C5.12793 22.2417 8.9834 22.2417 11.3623 19.8628C13.5771 17.6479 17.1865 14.0386 19.4014 11.8237C19.6064 11.6187 19.6064 11.3315 19.4014 11.1265L18.7041 10.4292C18.499 10.2241 18.2119 10.2241 18.0068 10.4292C15.792 12.644 12.1826 16.2534 9.96777 18.4683C8.36816 20.0679 5.74316 20.0679 4.14355 18.4683C2.54395 16.8687 2.54395 14.2437 4.14355 12.644L13.3721 3.41553C14.4385 2.34912 16.1611 2.34912 17.2275 3.41553C18.2939 4.48193 18.2939 6.20459 17.2275 7.271L9.47559 15.0229C8.94238 15.5562 8.08105 15.5562 7.54785 15.0229C7.05566 14.5308 7.05566 13.6694 7.54785 13.1362L14.1514 6.57373C14.3564 6.36865 14.3564 6.08154 14.1514 5.87646L13.4541 5.1792C13.249 4.97412 12.9619 4.97412 12.7568 5.1792L6.19434 11.7417C4.88184 13.0542 4.88184 15.146 6.19434 16.4175C7.46582 17.73 9.55762 17.73 10.8291 16.4175L18.6221 8.66553C20.4678 6.81982 20.4678 3.8667 18.6221 2.021C16.7764 0.175293 13.8232 0.175293 11.9775 2.021L2.74902 11.2495C0.370117 13.6284 0.370117 17.4839 2.74902 19.8628Z" fill="white"/>
</svg>
