<svg width="57" height="57" viewBox="0 0 57 57" fill="none" xmlns="http://www.w3.org/2000/svg">
<path d="M15.629 0H0.919355C0.410952 0 0 0.411871 0 0.919355V13.7903C0 14.2978 0.410952 14.7097 0.919355 14.7097H1.83871V50.5645C1.83871 54.1132 4.7264 57 8.27419 57C11.822 57 14.7097 54.1132 14.7097 50.5645V14.7097H15.629C16.1374 14.7097 16.5484 14.2978 16.5484 13.7903V0.919355C16.5484 0.411871 16.1374 0 15.629 0ZM9.19355 12.871V1.83871H11.0323V12.871H9.19355ZM5.51613 12.871V1.83871H7.35484V12.871H5.51613ZM1.83871 1.83871H3.67742V12.871H1.83871V1.83871ZM3.67742 22.0645H12.871V45.9677H3.67742V22.0645ZM8.27419 55.1613C5.73953 55.1613 3.67742 53.0992 3.67742 50.5645V47.8065H12.871V50.5645C12.871 53.0992 10.8089 55.1613 8.27419 55.1613ZM12.871 20.2258H3.67742V14.7097H12.871V20.2258ZM14.7097 12.871H12.871V1.83871H14.7097V12.871Z" fill="url(#paint0_linear)"/>
<path d="M9.19304 25.7411V23.9023H7.35433V25.7411H5.51562V27.5798H7.35433V29.4185H9.19304V27.5798H11.0318V25.7411H9.19304Z" fill="url(#paint1_linear)"/>
<path d="M5.51562 33.0938H11.0318V34.9325H5.51562V33.0938Z" fill="url(#paint2_linear)"/>
<path d="M5.51562 36.7734H11.0318V38.6121H5.51562V36.7734Z" fill="url(#paint3_linear)"/>
<path d="M5.51562 40.4492H11.0318V42.2879H5.51562V40.4492Z" fill="url(#paint4_linear)"/>
<path d="M34.9351 0.919355C34.9351 0.411871 34.5242 0 34.0158 0H19.3061C18.7977 0 18.3867 0.411871 18.3867 0.919355V13.7903C18.3867 14.2978 18.7977 14.7097 19.3061 14.7097H20.2254V50.5645C20.2254 54.1132 23.1131 57 26.6609 57C30.2087 57 33.0964 54.1132 33.0964 50.5645V14.7097H34.0158C34.5242 14.7097 34.9351 14.2978 34.9351 13.7903V0.919355ZM27.5803 12.871V1.83871H29.419V12.871H27.5803ZM23.9028 12.871V1.83871H25.7416V12.871H23.9028ZM20.2254 1.83871H22.0641V12.871H20.2254V1.83871ZM22.0641 22.0645H31.2577V45.9677H22.0641V22.0645ZM26.6609 55.1613C24.1263 55.1613 22.0641 53.0992 22.0641 50.5645V47.8065H31.2577V50.5645C31.2577 53.0992 29.1956 55.1613 26.6609 55.1613ZM31.2577 20.2258H22.0641V14.7097H31.2577V20.2258ZM33.0964 12.871H31.2577V1.83871H33.0964V12.871Z" fill="url(#paint5_linear)"/>
<path d="M27.5807 25.7411V23.9023H25.742V25.7411H23.9033V27.5798H25.742V29.4185H27.5807V27.5798H29.4194V25.7411H27.5807Z" fill="url(#paint6_linear)"/>
<path d="M23.9033 33.0938H29.4194V34.9325H23.9033V33.0938Z" fill="url(#paint7_linear)"/>
<path d="M23.9033 36.7734H29.4194V38.6121H23.9033V36.7734Z" fill="url(#paint8_linear)"/>
<path d="M23.9033 40.4492H29.4194V42.2879H23.9033V40.4492Z" fill="url(#paint9_linear)"/>
<path d="M45.9677 11.9492C39.8843 11.9492 34.9354 16.8981 34.9354 22.9815C34.9354 25.2799 35.6295 27.4606 36.9488 29.3259L35.0558 32.6384C34.8664 32.9693 34.9014 33.3831 35.1432 33.6772C35.3215 33.8942 35.5845 34.0137 35.8548 34.0137C35.9513 34.0137 36.0497 33.9981 36.1453 33.9668L40.4561 32.5299C42.1358 33.5017 44.0324 34.0137 45.9677 34.0137C52.051 34.0137 56.9999 29.0648 56.9999 22.9815C56.9999 16.8981 52.051 11.9492 45.9677 11.9492ZM45.9677 32.175C44.2328 32.175 42.5366 31.6804 41.0611 30.7463C40.9121 30.6517 40.7411 30.6038 40.5692 30.6038C40.4718 30.6038 40.3734 30.6195 40.2787 30.6507L37.847 31.4616L38.8454 29.7148C39.032 29.3885 39.0008 28.9821 38.7673 28.687C37.4636 27.0432 36.7741 25.0702 36.7741 22.9815C36.7741 17.9122 40.8983 13.7879 45.9677 13.7879C51.037 13.7879 55.1612 17.9122 55.1612 22.9815C55.1612 28.0508 51.037 32.175 45.9677 32.175Z" fill="url(#paint10_linear)"/>
<path d="M46.7507 16.0677C46.417 15.5243 45.5188 15.5243 45.185 16.0677L41.1987 22.5418C40.2867 24.0228 40.2076 25.8376 40.9882 27.3969C41.8128 29.0471 43.4493 30.1375 45.3643 30.3121C45.562 30.3305 45.7624 30.3397 45.9674 30.3397C46.1724 30.3397 46.3728 30.3305 46.5714 30.3121C48.4864 30.1375 50.122 29.0471 50.9475 27.3969C51.7281 25.8386 51.649 24.0238 50.7361 22.5418L46.7507 16.0677ZM49.3037 26.574C48.7641 27.6515 47.6802 28.364 46.405 28.4817C46.1163 28.5075 45.8194 28.5075 45.5307 28.4817C44.2546 28.365 43.1716 27.6515 42.632 26.574C42.1319 25.5738 42.1806 24.4549 42.7653 23.5062L45.9674 18.3026L49.1704 23.5052C49.7551 24.4549 49.8039 25.5729 49.3037 26.574Z" fill="url(#paint11_linear)"/>
<defs>
<linearGradient id="paint0_linear" x1="1.36995e-07" y1="23.75" x2="16.5484" y2="23.75" gradientUnits="userSpaceOnUse">
<stop stop-color="#11CDD6"/>
<stop offset="1" stop-color="#3DB5E6"/>
</linearGradient>
<linearGradient id="paint1_linear" x1="5.51563" y1="26.2007" x2="11.0318" y2="26.2007" gradientUnits="userSpaceOnUse">
<stop stop-color="#11CDD6"/>
<stop offset="1" stop-color="#3DB5E6"/>
</linearGradient>
<linearGradient id="paint2_linear" x1="5.51563" y1="33.8599" x2="11.0318" y2="33.8599" gradientUnits="userSpaceOnUse">
<stop stop-color="#11CDD6"/>
<stop offset="1" stop-color="#3DB5E6"/>
</linearGradient>
<linearGradient id="paint3_linear" x1="5.51563" y1="37.5396" x2="11.0318" y2="37.5396" gradientUnits="userSpaceOnUse">
<stop stop-color="#11CDD6"/>
<stop offset="1" stop-color="#3DB5E6"/>
</linearGradient>
<linearGradient id="paint4_linear" x1="5.51563" y1="41.2153" x2="11.0318" y2="41.2153" gradientUnits="userSpaceOnUse">
<stop stop-color="#11CDD6"/>
<stop offset="1" stop-color="#3DB5E6"/>
</linearGradient>
<linearGradient id="paint5_linear" x1="18.3867" y1="23.75" x2="34.9351" y2="23.75" gradientUnits="userSpaceOnUse">
<stop stop-color="#11CDD6"/>
<stop offset="1" stop-color="#3DB5E6"/>
</linearGradient>
<linearGradient id="paint6_linear" x1="23.9033" y1="26.2007" x2="29.4194" y2="26.2007" gradientUnits="userSpaceOnUse">
<stop stop-color="#11CDD6"/>
<stop offset="1" stop-color="#3DB5E6"/>
</linearGradient>
<linearGradient id="paint7_linear" x1="23.9033" y1="33.8599" x2="29.4194" y2="33.8599" gradientUnits="userSpaceOnUse">
<stop stop-color="#11CDD6"/>
<stop offset="1" stop-color="#3DB5E6"/>
</linearGradient>
<linearGradient id="paint8_linear" x1="23.9033" y1="37.5396" x2="29.4194" y2="37.5396" gradientUnits="userSpaceOnUse">
<stop stop-color="#11CDD6"/>
<stop offset="1" stop-color="#3DB5E6"/>
</linearGradient>
<linearGradient id="paint9_linear" x1="23.9033" y1="41.2153" x2="29.4194" y2="41.2153" gradientUnits="userSpaceOnUse">
<stop stop-color="#11CDD6"/>
<stop offset="1" stop-color="#3DB5E6"/>
</linearGradient>
<linearGradient id="paint10_linear" x1="34.9346" y1="21.1428" x2="56.9999" y2="21.1428" gradientUnits="userSpaceOnUse">
<stop stop-color="#11CDD6"/>
<stop offset="1" stop-color="#3DB5E6"/>
</linearGradient>
<linearGradient id="paint11_linear" x1="40.4541" y1="21.7766" x2="51.4815" y2="21.7766" gradientUnits="userSpaceOnUse">
<stop stop-color="#11CDD6"/>
<stop offset="1" stop-color="#3DB5E6"/>
</linearGradient>
</defs>
</svg>
