<svg width="64" height="64" viewBox="0 0 64 64" fill="none" xmlns="http://www.w3.org/2000/svg">
<path d="M29.8213 19.0011H26.4998V15.6796C26.4998 14.9892 25.9401 14.4297 25.25 14.4297C24.5598 14.4297 24.0001 14.9893 24.0001 15.6796V19.0011H20.6786C19.9883 19.0011 19.4287 19.5607 19.4287 20.2509C19.4287 20.9412 19.9883 21.5008 20.6786 21.5008H24.0001V24.8223C24.0001 25.5127 24.5598 26.0722 25.25 26.0722C25.9401 26.0722 26.4998 25.5125 26.4998 24.8223V21.5008H29.8213C30.5116 21.5008 31.0712 20.9412 31.0712 20.2509C31.0712 19.5607 30.5116 19.0011 29.8213 19.0011Z" fill="url(#paint0_linear)"/>
<path d="M25.2474 9.26172C19.1824 9.26172 14.248 14.1961 14.248 20.2611C14.248 26.3261 19.1824 31.2604 25.2474 31.2604C31.3124 31.2604 36.2468 26.3261 36.2468 20.2611C36.2468 14.1961 31.3124 9.26172 25.2474 9.26172ZM25.2474 28.7604C20.5608 28.7604 16.7479 24.9476 16.7479 20.261C16.7479 15.5743 20.5608 11.7615 25.2474 11.7615C29.934 11.7615 33.7469 15.5743 33.7469 20.261C33.7469 24.9476 29.934 28.7604 25.2474 28.7604Z" fill="url(#paint1_linear)"/>
<path d="M50.1307 11.4905L39.0064 0.366124C38.7719 0.13175 38.4541 0 38.1226 0H3.74974C1.68212 0 0 1.68225 0 3.74987V60.2465C0 62.3142 1.68212 63.9963 3.74974 63.9963H38.5C39.1903 63.9963 37 63.4365 37 62.7464C37 62.0563 34.6901 61.4965 34 61.4965H3.74974C3.0605 61.4965 2.49987 60.9358 2.49987 60.2467V3.74987C2.49987 3.06062 3.06062 2.5 3.74974 2.5H36.8726V9.87449C36.8726 11.9421 38.5547 13.6242 40.6223 13.6242H47.9968V39C47.9968 42.6272 48.5565 40 49.2467 40C49.9368 40 50.4965 40.6901 50.4965 40V12.3742C50.4968 12.0427 50.365 11.7249 50.1307 11.4905ZM40.6224 11.1244C39.9332 11.1244 39.3726 10.5636 39.3726 9.87449V4.26762L46.2294 11.1244H40.6224Z" fill="url(#paint2_linear)"/>
<path d="M41.2469 34.9883H19.5399C18.8497 34.9883 18.29 35.548 18.29 36.2382C18.29 36.9283 18.8498 37.488 19.5399 37.488H41.2469C41.9371 37.488 42.4968 36.9284 42.4968 36.2382C42.4969 35.548 41.9371 34.9883 41.2469 34.9883Z" fill="url(#paint3_linear)"/>
<path d="M13.3207 34.9883H9.24792C8.55767 34.9883 7.99805 35.548 7.99805 36.2382C7.99805 36.9283 8.5578 37.488 9.24792 37.488H13.3207C14.0109 37.488 14.5705 36.9283 14.5705 36.2382C14.5705 35.548 14.0109 34.9883 13.3207 34.9883Z" fill="url(#paint4_linear)"/>
<path d="M31.9975 41.9961H19.5399C18.8497 41.9961 18.29 42.5558 18.29 43.246C18.29 43.9361 18.8498 44.4958 19.5399 44.4958H31.9975C32.6878 44.4958 33.2474 43.9362 33.2474 43.246C33.2474 42.5558 32.6878 41.9961 31.9975 41.9961Z" fill="url(#paint5_linear)"/>
<path d="M13.3216 41.9961H9.2489C8.55865 41.9961 7.99902 42.5558 7.99902 43.246C7.99902 43.9361 8.55877 44.4958 9.2489 44.4958H13.3216C14.0119 44.4958 14.5715 43.9361 14.5715 43.246C14.5715 42.5558 14.0119 41.9961 13.3216 41.9961Z" fill="url(#paint6_linear)"/>
<path d="M20.4227 49.3662C20.1903 49.1337 19.8689 49 19.5391 49C19.2103 49 18.8891 49.1336 18.6553 49.3662C18.4228 49.5987 18.2891 49.9212 18.2891 50.25C18.2891 50.5787 18.4227 50.9012 18.6553 51.1336C18.8878 51.3661 19.2103 51.5 19.5391 51.5C19.8691 51.5 20.1903 51.3662 20.4227 51.1336C20.6564 50.9012 20.7891 50.5787 20.7891 50.25C20.7891 49.9212 20.6564 49.5987 20.4227 49.3662Z" fill="url(#paint7_linear)"/>
<path d="M13.3216 49H9.2489C8.55865 49 7.99902 49.5597 7.99902 50.2499C7.99902 50.9401 8.55877 51.4997 9.2489 51.4997H13.3216C14.0119 51.4997 14.5715 50.94 14.5715 50.2499C14.5716 49.5597 14.0119 49 13.3216 49Z" fill="url(#paint8_linear)"/>
<path d="M56.2507 48.4961C55.8838 48.4961 55.5233 48.5235 55.17 48.5731C55.9577 45.9314 55.3107 42.9497 53.2287 40.8674C51.7649 39.4038 49.8189 38.5977 47.7489 38.5977C45.6788 38.5977 43.7328 39.4038 42.2692 40.8674L32.3703 50.7661C30.9067 52.2299 30.1006 54.1759 30.1006 56.2459C30.1006 58.316 30.9067 60.262 32.3703 61.7256C33.8813 63.2365 35.8653 63.9917 37.8501 63.9917C39.8343 63.9917 41.8192 63.2361 43.3298 61.7256L48.5088 56.5466C48.6677 60.6808 52.0786 63.9954 56.2508 63.9954C60.524 63.9954 64.0004 60.519 64.0004 56.2458C64.0004 51.9725 60.5239 48.4961 56.2507 48.4961ZM41.5619 59.958C39.5152 62.005 36.1847 62.005 34.138 59.958C33.1463 58.9665 32.6003 57.6483 32.6003 56.246C32.6003 54.8438 33.1463 53.5254 34.138 52.534L38.2036 48.4684L45.6276 55.8925L41.5619 59.958ZM47.3951 54.1248L39.9711 46.7006L44.0367 42.6352C45.0283 41.6435 46.3464 41.0975 47.7487 41.0975C49.1509 41.0975 50.4693 41.6435 51.4607 42.6352C53.5076 44.6819 53.5076 48.0124 51.4607 50.0591L47.3951 54.1248ZM55.0008 61.3441C52.7078 60.7816 51.0009 58.7098 51.0009 56.2459C51.0009 53.7819 52.7077 51.71 55.0008 51.1478V61.3441ZM57.5005 61.3441V51.1476C59.7937 51.71 61.5004 53.7819 61.5004 56.2458C61.5004 58.7096 59.7937 60.7816 57.5005 61.3441Z" fill="url(#paint9_linear)"/>
<defs>
<linearGradient id="paint0_linear" x1="19.4287" y1="19.2807" x2="31.0712" y2="19.2807" gradientUnits="userSpaceOnUse">
<stop stop-color="#11CDD6"/>
<stop offset="1" stop-color="#3DB5E6"/>
</linearGradient>
<linearGradient id="paint1_linear" x1="14.248" y1="18.4278" x2="36.2468" y2="18.4278" gradientUnits="userSpaceOnUse">
<stop stop-color="#11CDD6"/>
<stop offset="1" stop-color="#3DB5E6"/>
</linearGradient>
<linearGradient id="paint2_linear" x1="4.18032e-07" y1="26.6651" x2="50.4965" y2="26.6651" gradientUnits="userSpaceOnUse">
<stop stop-color="#11CDD6"/>
<stop offset="1" stop-color="#3DB5E6"/>
</linearGradient>
<linearGradient id="paint3_linear" x1="18.29" y1="36.0298" x2="42.4968" y2="36.0298" gradientUnits="userSpaceOnUse">
<stop stop-color="#11CDD6"/>
<stop offset="1" stop-color="#3DB5E6"/>
</linearGradient>
<linearGradient id="paint4_linear" x1="7.99805" y1="36.0298" x2="14.5705" y2="36.0298" gradientUnits="userSpaceOnUse">
<stop stop-color="#11CDD6"/>
<stop offset="1" stop-color="#3DB5E6"/>
</linearGradient>
<linearGradient id="paint5_linear" x1="18.29" y1="43.0377" x2="33.2474" y2="43.0377" gradientUnits="userSpaceOnUse">
<stop stop-color="#11CDD6"/>
<stop offset="1" stop-color="#3DB5E6"/>
</linearGradient>
<linearGradient id="paint6_linear" x1="7.99902" y1="43.0377" x2="14.5715" y2="43.0377" gradientUnits="userSpaceOnUse">
<stop stop-color="#11CDD6"/>
<stop offset="1" stop-color="#3DB5E6"/>
</linearGradient>
<linearGradient id="paint7_linear" x1="18.2891" y1="50.0417" x2="20.7891" y2="50.0417" gradientUnits="userSpaceOnUse">
<stop stop-color="#11CDD6"/>
<stop offset="1" stop-color="#3DB5E6"/>
</linearGradient>
<linearGradient id="paint8_linear" x1="7.99902" y1="50.0416" x2="14.5715" y2="50.0416" gradientUnits="userSpaceOnUse">
<stop stop-color="#11CDD6"/>
<stop offset="1" stop-color="#3DB5E6"/>
</linearGradient>
<linearGradient id="paint9_linear" x1="30.1006" y1="49.18" x2="64.0004" y2="49.18" gradientUnits="userSpaceOnUse">
<stop stop-color="#11CDD6"/>
<stop offset="1" stop-color="#3DB5E6"/>
</linearGradient>
</defs>
</svg>
