<svg width="64" height="64" viewBox="0 0 64 64" fill="none" xmlns="http://www.w3.org/2000/svg">
<path d="M23.7422 4.12891H25.8067V6.19342H23.7422V4.12891Z" fill="url(#paint0_linear)"/>
<path d="M15.4834 4.12891H21.6769V6.19342H15.4834V4.12891Z" fill="url(#paint1_linear)"/>
<path d="M14.4512 59.8693H26.8383V53.6758H14.4512V59.8693ZM16.5157 55.7403H24.7738V57.8048H16.5157V55.7403Z" fill="url(#paint2_linear)"/>
<path d="M45.419 41.2913H47.4835V43.3558C47.4835 44.4944 48.4095 45.4204 49.548 45.4204H51.6126C52.7511 45.4204 53.6771 44.4944 53.6771 43.3558V41.2913H55.7416C56.8802 41.2913 57.8061 40.3654 57.8061 39.2268V37.1623C57.8061 36.0237 56.8802 35.0978 55.7416 35.0978H53.6771V33.0333C53.6771 31.8947 52.7511 30.9688 51.6126 30.9688H49.548C48.4095 30.9688 47.4835 31.8947 47.4835 33.0333V35.0978H45.419C44.2804 35.0978 43.3545 36.0237 43.3545 37.1623V39.2268C43.3545 40.3654 44.2804 41.2913 45.419 41.2913ZM45.419 37.1623H49.548V33.0333H51.6126V37.1623H55.7416V39.2268H51.6126V43.3558H49.548V39.2268L45.419 39.2237V37.1623Z" fill="url(#paint3_linear)"/>
<path d="M60.9032 18.5806C62.6106 18.5806 64 17.1912 64 15.4839V7.22581C64 5.51845 62.6106 4.12903 60.9032 4.12903H41.2903V3.09677C41.2903 1.38942 39.9009 0 38.1935 0H3.09677C1.38942 0 0 1.38942 0 3.09677V60.9032C0 62.6106 1.38942 64 3.09677 64H38.1935C39.9009 64 41.2903 62.6106 41.2903 60.9032V49.3585C41.6144 49.4741 41.9592 49.5484 42.3226 49.5484H60.9032C62.6106 49.5484 64 48.159 64 46.4516V25.1179C64 23.7905 62.9192 22.7097 61.5917 22.7097C60.8382 22.7097 60.1166 23.0699 59.6645 23.6728L57.2903 26.8387H42.3226C41.9592 26.8387 41.6144 26.913 41.2903 27.0286V18.5806H60.9032ZM61.9355 7.22581V15.4839C61.9355 16.0526 61.473 16.5161 60.9032 16.5161H36.6452L33.6526 20.5068C33.4741 20.7453 33.0312 20.5977 33.0323 20.3004V7.22581C33.0323 6.65703 33.4947 6.19355 34.0645 6.19355H60.9032C61.473 6.19355 61.9355 6.65703 61.9355 7.22581ZM12.3871 26.431V29.9355C11.2485 29.9355 10.3226 29.0095 10.3226 27.871C10.3226 26.7324 11.2485 25.8064 12.3871 25.8064H12.4253C12.4098 26.0139 12.3871 26.2204 12.3871 26.431ZM12.8619 23.7419H12.3871C11.8679 23.7419 11.3765 23.8493 10.9182 24.0248C10.6457 23.0751 10.3226 21.728 10.3226 20.6452C10.3226 19.5066 11.2485 18.5806 12.3871 18.5806H12.9032L14.0191 17.0921C15.2588 15.4385 17.2335 14.4516 19.3001 14.4516C20.0712 14.4516 20.8299 14.5848 21.5566 14.849L28.3468 17.3182C29.9138 17.888 30.9677 19.392 30.9677 21.0601C30.9677 21.3853 30.9275 21.7094 30.8532 22.0088L30.3174 24.0072C29.8746 23.8441 29.4018 23.7419 28.9032 23.7419H27.871C23.0885 23.7419 17.1479 19.8255 17.089 19.7853L16.5151 19.4044L15.9432 19.7863C14.4929 20.7535 13.4317 22.1492 12.8619 23.7419ZM28.9032 25.8064C30.0418 25.8064 30.9677 26.7324 30.9677 27.871C30.9677 29.0095 30.0418 29.9355 28.9032 29.9355V25.8064ZM26.8387 29.9355C26.8387 33.3512 24.0609 36.129 20.6452 36.129C17.2294 36.129 14.4516 33.3512 14.4516 29.9355V26.431C14.4516 24.6668 15.231 23.0152 16.5646 21.8963C18.1781 22.8821 22.6281 25.3832 26.8387 25.7579V29.9355ZM20.6452 38.1935C21.2377 38.1935 21.8157 38.1275 22.3732 38.0088L20.6452 40.5079L18.9172 38.0088C19.4746 38.1275 20.0526 38.1935 20.6452 38.1935ZM28.8619 34.9481L27.4312 34.6302C27.9783 33.8426 28.385 32.9538 28.6317 32H28.9032C31.1804 32 33.0323 30.1481 33.0323 27.871C33.0323 26.8945 32.6772 26.0067 32.1074 25.2996L32.8206 22.6395C33.0003 22.6818 33.184 22.7097 33.376 22.7097C34.0294 22.7097 34.6467 22.4279 35.0968 21.9634V38.6942C33.4926 36.8341 31.327 35.4963 28.8619 34.9481ZM30.9677 16.5357C30.4124 16.0454 29.7745 15.6397 29.0529 15.3775L22.2627 12.9084C21.3089 12.5626 20.3128 12.3871 19.3001 12.3871C16.5863 12.3871 13.9943 13.6826 12.3675 15.8534L11.8431 16.5512C9.824 16.8175 8.25806 18.5528 8.25806 20.6452C8.25806 22.3061 8.84129 24.3479 9.15716 25.3295C8.60284 26.0325 8.25806 26.9079 8.25806 27.871C8.25806 30.1481 10.1099 32 12.3871 32H12.6586C12.9053 32.9538 13.312 33.8415 13.8591 34.6302L12.4284 34.9481C9.96335 35.4963 7.79768 36.8341 6.19355 38.6942V10.3226H30.9677V16.5357ZM6.19355 42.5497C7.31974 39.8741 9.60206 37.8808 12.3871 37.1035V43.4591C10.0346 43.9391 8.25806 46.0243 8.25806 48.5161V49.5484H6.19355V42.5497ZM10.3226 48.5161C10.3226 46.8088 11.712 45.4194 13.4194 45.4194C15.1267 45.4194 16.5161 46.8088 16.5161 48.5161V49.5484H10.3226V48.5161ZM14.4516 43.4591V36.6132L15.3105 36.4222L20.6452 44.1373L25.9799 36.4212L26.8387 36.6132V45.6103C25.6403 46.0377 24.7742 47.1732 24.7742 48.5172C24.7742 48.8805 24.8485 49.2253 24.9641 49.5494H18.5806V48.5172C18.5806 46.0243 16.8041 43.9391 14.4516 43.4591ZM26.8387 48.5161C26.8387 47.9474 27.3012 47.4839 27.871 47.4839C28.4408 47.4839 28.9032 47.9474 28.9032 48.5161C28.9032 49.0849 28.4408 49.5484 27.871 49.5484C27.3012 49.5484 26.8387 49.0849 26.8387 48.5161ZM28.9032 45.6093V37.1035C31.6883 37.8808 33.9706 39.8741 35.0968 42.5497V49.5484H30.7778C30.8934 49.2243 30.9677 48.8795 30.9677 48.5161C30.9677 47.1721 30.1017 46.0366 28.9032 45.6093ZM42.3226 28.9032H58.3226L61.3151 24.9125C61.4916 24.673 61.9355 24.8196 61.9355 25.1179V46.4516C61.9355 47.0204 61.473 47.4839 60.9032 47.4839H42.3226C41.7528 47.4839 41.2903 47.0204 41.2903 46.4516V29.9355C41.2903 29.3667 41.7528 28.9032 42.3226 28.9032ZM39.2258 60.9032C39.2258 61.472 38.7634 61.9355 38.1935 61.9355H3.09677C2.52697 61.9355 2.06452 61.472 2.06452 60.9032V3.09677C2.06452 2.528 2.52697 2.06452 3.09677 2.06452H38.1935C38.7634 2.06452 39.2258 2.528 39.2258 3.09677V4.12903H34.0645C32.3572 4.12903 30.9677 5.51845 30.9677 7.22581V8.25806H4.12903V51.6129H37.1613V19.2692L37.6774 18.5806H39.2258V60.9032Z" fill="url(#paint4_linear)"/>
<path d="M56.7745 14.4514C58.4819 14.4514 59.8713 13.0619 59.8713 11.3546C59.8713 9.64723 58.4819 8.25781 56.7745 8.25781C55.0672 8.25781 53.6777 9.64723 53.6777 11.3546C53.6777 13.0619 55.0672 14.4514 56.7745 14.4514ZM56.7745 10.3223C57.3443 10.3223 57.8068 10.7858 57.8068 11.3546C57.8068 11.9234 57.3443 12.3868 56.7745 12.3868C56.2047 12.3868 55.7423 11.9234 55.7423 11.3546C55.7423 10.7858 56.2047 10.3223 56.7745 10.3223Z" fill="url(#paint5_linear)"/>
<path d="M48.5157 14.4514C50.2231 14.4514 51.6125 13.0619 51.6125 11.3546C51.6125 9.64723 50.2231 8.25781 48.5157 8.25781C46.8084 8.25781 45.4189 9.64723 45.4189 11.3546C45.4189 13.0619 46.8084 14.4514 48.5157 14.4514ZM48.5157 10.3223C49.0855 10.3223 49.548 10.7858 49.548 11.3546C49.548 11.9234 49.0855 12.3868 48.5157 12.3868C47.9459 12.3868 47.4835 11.9234 47.4835 11.3546C47.4835 10.7858 47.9459 10.3223 48.5157 10.3223Z" fill="url(#paint6_linear)"/>
<path d="M40.2579 14.4514C41.9653 14.4514 43.3547 13.0619 43.3547 11.3546C43.3547 9.64723 41.9653 8.25781 40.2579 8.25781C38.5506 8.25781 37.1611 9.64723 37.1611 11.3546C37.1611 13.0619 38.5506 14.4514 40.2579 14.4514ZM40.2579 10.3223C40.8277 10.3223 41.2902 10.7858 41.2902 11.3546C41.2902 11.9234 40.8277 12.3868 40.2579 12.3868C39.6881 12.3868 39.2256 11.9234 39.2256 11.3546C39.2256 10.7858 39.6881 10.3223 40.2579 10.3223Z" fill="url(#paint7_linear)"/>
<defs>
<linearGradient id="paint0_linear" x1="23.7422" y1="4.98912" x2="25.8067" y2="4.98912" gradientUnits="userSpaceOnUse">
<stop stop-color="#11CDD6"/>
<stop offset="1" stop-color="#3DB5E6"/>
</linearGradient>
<linearGradient id="paint1_linear" x1="15.4834" y1="4.98912" x2="21.6769" y2="4.98912" gradientUnits="userSpaceOnUse">
<stop stop-color="#11CDD6"/>
<stop offset="1" stop-color="#3DB5E6"/>
</linearGradient>
<linearGradient id="paint2_linear" x1="14.4512" y1="56.2564" x2="26.8383" y2="56.2564" gradientUnits="userSpaceOnUse">
<stop stop-color="#11CDD6"/>
<stop offset="1" stop-color="#3DB5E6"/>
</linearGradient>
<linearGradient id="paint3_linear" x1="43.3545" y1="36.9903" x2="57.8061" y2="36.9903" gradientUnits="userSpaceOnUse">
<stop stop-color="#11CDD6"/>
<stop offset="1" stop-color="#3DB5E6"/>
</linearGradient>
<linearGradient id="paint4_linear" x1="5.29819e-07" y1="26.6667" x2="64" y2="26.6667" gradientUnits="userSpaceOnUse">
<stop stop-color="#11CDD6"/>
<stop offset="1" stop-color="#3DB5E6"/>
</linearGradient>
<linearGradient id="paint5_linear" x1="53.6777" y1="10.8385" x2="59.8713" y2="10.8385" gradientUnits="userSpaceOnUse">
<stop stop-color="#11CDD6"/>
<stop offset="1" stop-color="#3DB5E6"/>
</linearGradient>
<linearGradient id="paint6_linear" x1="45.4189" y1="10.8385" x2="51.6125" y2="10.8385" gradientUnits="userSpaceOnUse">
<stop stop-color="#11CDD6"/>
<stop offset="1" stop-color="#3DB5E6"/>
</linearGradient>
<linearGradient id="paint7_linear" x1="37.1611" y1="10.8385" x2="43.3547" y2="10.8385" gradientUnits="userSpaceOnUse">
<stop stop-color="#11CDD6"/>
<stop offset="1" stop-color="#3DB5E6"/>
</linearGradient>
</defs>
</svg>
