<svg width="68" height="67" viewBox="0 0 68 67" fill="none" xmlns="http://www.w3.org/2000/svg">
<g clip-path="url(#clip0)">
<path d="M31.4167 12.2372C34.1728 11.8776 36.9725 12.0567 39.6603 12.7644C39.6798 12.7714 39.6938 12.7868 39.7147 12.7909C39.7356 12.7951 39.7663 12.7909 39.7928 12.8021C42.455 13.5231 44.9517 14.7548 47.1437 16.4287C47.253 16.5121 47.3776 16.5731 47.5104 16.6083C47.6433 16.6435 47.7817 16.6521 47.9179 16.6338C48.0541 16.6155 48.1854 16.5705 48.3042 16.5015C48.423 16.4324 48.5271 16.3406 48.6104 16.2314C48.6938 16.1221 48.7548 15.9975 48.7899 15.8646C48.8251 15.7318 48.8338 15.5933 48.8155 15.4571C48.7972 15.3209 48.7522 15.1897 48.6831 15.0709C48.6141 14.9521 48.5223 14.848 48.413 14.7647C46.2593 13.13 43.8382 11.8817 41.2574 11.0753L42.2101 7.51978C42.9102 7.50602 43.5926 7.29735 44.1807 6.9172C44.7687 6.53706 45.2392 6.00049 45.5391 5.36776C45.8391 4.73504 45.9567 4.03121 45.8788 3.33532C45.8009 2.63944 45.5305 1.97906 45.098 1.42834C44.6656 0.877629 44.0881 0.458394 43.4305 0.217721C42.773 -0.0229522 42.0613 -0.0755318 41.3755 0.0658871C40.6897 0.207306 40.0569 0.537123 39.5482 1.0183C39.0394 1.49947 38.6749 2.11294 38.4956 2.78982C38.2864 3.57676 38.3385 4.41039 38.6442 5.16512C38.9498 5.91986 39.4925 6.55483 40.1904 6.97439L39.2349 10.541C36.5798 9.95159 33.8426 9.82606 31.1447 10.17C31.0051 10.1834 30.8696 10.2247 30.7463 10.2914C30.623 10.3582 30.5144 10.4491 30.4269 10.5586C30.3394 10.6682 30.2748 10.7943 30.237 10.9293C30.1992 11.0643 30.1889 11.2056 30.2068 11.3447C30.2246 11.4838 30.2703 11.6178 30.341 11.7389C30.4117 11.86 30.506 11.9657 30.6184 12.0496C30.7307 12.1335 30.8588 12.1939 30.995 12.2274C31.1312 12.2608 31.2727 12.2665 31.4111 12.2442L31.4167 12.2372ZM40.5181 3.33242C40.6335 2.90454 40.9139 2.53988 41.2977 2.31841C41.6816 2.09693 42.1376 2.03672 42.5658 2.15098C42.9703 2.28601 43.308 2.57034 43.5099 2.9459C43.7119 3.32147 43.7629 3.75996 43.6526 4.17186C43.5422 4.58377 43.2788 4.93801 42.9161 5.16229C42.5534 5.38657 42.1188 5.46396 41.701 5.37868C41.2732 5.26358 40.9084 4.98356 40.6867 4.59999C40.465 4.21643 40.4044 3.7606 40.5181 3.33242Z" fill="url(#paint0_linear)"/>
<path d="M36.9363 54.713C34.1775 55.0742 31.3749 54.8956 28.6843 54.1871C28.6634 54.1871 28.6494 54.1662 28.6285 54.1606C28.616 54.1599 28.6034 54.1599 28.5909 54.1606C25.9479 53.4488 23.4668 52.2346 21.2832 50.5842C21.1733 50.5018 21.0482 50.4418 20.9151 50.4077C20.7821 50.3736 20.6436 50.3661 20.5076 50.3855C20.3716 50.4049 20.2407 50.451 20.1225 50.521C20.0043 50.591 19.901 50.6836 19.8186 50.7935C19.7362 50.9034 19.6762 51.0284 19.6421 51.1615C19.608 51.2946 19.6005 51.4331 19.6199 51.5691C19.6591 51.8438 19.8059 52.0916 20.0278 52.2581C22.1564 53.8645 24.5439 55.0953 27.0872 55.8972L26.1359 59.4485C25.3218 59.4546 24.5323 59.7281 23.8888 60.2269C23.2454 60.7257 22.7837 61.4221 22.5748 62.209C22.3191 63.1722 22.4557 64.1976 22.9545 65.0603C23.4534 65.9231 24.2738 66.553 25.2362 66.812C26.1087 67.0443 27.0357 66.9543 27.8472 66.5586C28.6587 66.1629 29.3004 65.4879 29.6546 64.6574C30.0088 63.827 30.0519 62.8966 29.7758 62.037C29.4997 61.1774 28.923 60.4461 28.1515 59.9772L29.1056 56.4189C30.7544 56.7853 32.438 56.9724 34.127 56.9769C35.1531 56.9771 36.1782 56.9109 37.1957 56.7788C37.335 56.765 37.4701 56.7233 37.5931 56.6564C37.716 56.5894 37.8242 56.4984 37.9113 56.3888C37.9985 56.2793 38.0627 56.1533 38.1003 56.0185C38.1378 55.8836 38.148 55.7426 38.13 55.6038C38.1121 55.465 38.0665 55.3311 37.9959 55.2102C37.9253 55.0894 37.8312 54.9839 37.7191 54.9C37.607 54.8162 37.4792 54.7557 37.3433 54.7221C37.2074 54.6886 37.0662 54.6826 36.9279 54.7046L36.9363 54.713ZM27.8251 63.6192C27.7097 64.047 27.4293 64.4117 27.0455 64.6332C26.6616 64.8546 26.2056 64.9149 25.7774 64.8006C25.3502 64.6852 24.986 64.4053 24.7646 64.0221C24.5432 63.6388 24.4826 63.1835 24.596 62.7557C24.7287 62.3484 25.0127 62.0074 25.3893 61.8031C25.7659 61.5988 26.2066 61.5467 26.6205 61.6575C27.0344 61.7684 27.39 62.0337 27.6141 62.3989C27.8382 62.7641 27.9137 63.2013 27.8251 63.6206V63.6192Z" fill="url(#paint1_linear)"/>
<path d="M12.4201 15.4814C13.0522 15.4796 13.6733 15.3168 14.2251 15.0086L16.8446 17.6281C15.0064 19.6171 13.5294 21.9117 12.4801 24.4085C12.4269 24.535 12.3991 24.6707 12.3983 24.8079C12.3976 24.9452 12.4238 25.0812 12.4756 25.2083C12.5275 25.3353 12.6038 25.451 12.7003 25.5485C12.7968 25.6461 12.9116 25.7237 13.0381 25.7769C13.1652 25.8306 13.3018 25.8581 13.4398 25.8578C13.6464 25.8578 13.8483 25.7968 14.0203 25.6824C14.1923 25.568 14.3267 25.4053 14.4064 25.2147C16.5976 19.9975 20.7576 15.8546 25.9837 13.6848C26.1108 13.6325 26.2262 13.5556 26.3236 13.4585C26.4209 13.3615 26.4981 13.2463 26.5509 13.1194C26.6037 12.9926 26.631 12.8565 26.6312 12.7191C26.6314 12.5817 26.6045 12.4456 26.5521 12.3186C26.4998 12.1916 26.4229 12.0761 26.3258 11.9788C26.2288 11.8815 26.1136 11.8042 25.9867 11.7514C25.8599 11.6986 25.7238 11.6714 25.5864 11.6711C25.449 11.6709 25.3129 11.6978 25.1859 11.7502C22.6562 12.8042 20.3317 14.2952 18.319 16.1551L15.705 13.5286C16.1045 12.8191 16.2599 11.998 16.1472 11.1915C16.0346 10.3851 15.6602 9.63799 15.0815 9.06508C14.6447 8.62407 14.1057 8.29786 13.5124 8.11547C12.9191 7.93308 12.2899 7.90017 11.6808 8.01966C11.0717 8.13915 10.5015 8.40733 10.0211 8.80036C9.54068 9.19339 9.16484 9.69907 8.92703 10.2724C8.68921 10.8458 8.5968 11.469 8.658 12.0867C8.71921 12.7044 8.93214 13.2974 9.27785 13.8129C9.62356 14.3284 10.0913 14.7505 10.6395 15.0416C11.1878 15.3327 11.7994 15.4838 12.4201 15.4814ZM11.2387 10.5422C11.3901 10.3714 11.5749 10.2334 11.7817 10.1367C11.9884 10.0399 12.2128 9.98645 12.4409 9.9796C12.6691 9.97275 12.8962 10.0126 13.1084 10.0968C13.3206 10.181 13.5133 10.3077 13.6747 10.4691C13.8361 10.6305 13.9628 10.8232 14.047 11.0354C14.1312 11.2476 14.1711 11.4747 14.1642 11.7029C14.1574 11.9311 14.1039 12.1554 14.0072 12.3622C13.9104 12.5689 13.7724 12.7537 13.6016 12.9051C13.2837 13.2098 12.8605 13.3799 12.4201 13.3799C11.9798 13.3799 11.5566 13.2098 11.2387 12.9051C10.9261 12.5914 10.7506 12.1666 10.7506 11.7237C10.7506 11.2808 10.9261 10.856 11.2387 10.5422Z" fill="url(#paint2_linear)"/>
<path d="M54.1278 51.9551L51.4985 49.3258C53.3245 47.3514 54.795 45.0758 55.8449 42.5998C55.8981 42.4732 55.9259 42.3373 55.9266 42.1999C55.9272 42.0625 55.9009 41.9263 55.8489 41.7991C55.797 41.6719 55.7205 41.5562 55.6238 41.4586C55.5272 41.3609 55.4122 41.2833 55.2856 41.2301C55.1589 41.1769 55.023 41.1491 54.8856 41.1485C54.7482 41.1478 54.6121 41.1741 54.4849 41.2261C54.3577 41.278 54.2419 41.3545 54.1443 41.4512C54.0467 41.5478 53.969 41.6628 53.9158 41.7894C51.7328 46.9492 47.622 51.0531 42.4585 53.2273C42.3317 53.2804 42.2167 53.3579 42.1199 53.4555C42.0231 53.5531 41.9465 53.6688 41.8944 53.796C41.8424 53.9232 41.8158 54.0594 41.8164 54.1968C41.817 54.3343 41.8446 54.4702 41.8977 54.597C41.9509 54.7238 42.0284 54.8388 42.126 54.9356C42.2236 55.0324 42.3393 55.109 42.4665 55.1611C42.5937 55.2131 42.7299 55.2396 42.8673 55.2391C43.0048 55.2385 43.1407 55.2109 43.2675 55.1577C45.753 54.1073 48.0373 52.6334 50.0186 50.8016L52.6381 53.4253C52.2046 54.2174 52.071 55.1392 52.2618 56.0217C52.4526 56.9043 52.955 57.6885 53.6771 58.2308C54.3991 58.773 55.2923 59.0369 56.1931 58.9741C57.0938 58.9113 57.9418 58.526 58.5816 57.8889C59.2865 57.1828 59.6823 56.2259 59.6823 55.2282C59.6823 54.2305 59.2865 53.2736 58.5816 52.5675C57.9966 52.0124 57.2522 51.6548 56.4532 51.545C55.6543 51.4351 54.841 51.5786 54.1278 51.9551ZM57.1045 56.4187C56.8703 56.651 56.5726 56.8089 56.249 56.8726C55.9253 56.9362 55.5901 56.9029 55.2853 56.7767C54.9805 56.6504 54.7199 56.437 54.536 56.1631C54.3522 55.8892 54.2534 55.5671 54.252 55.2372C54.2534 54.9074 54.3522 54.5853 54.536 54.3114C54.7199 54.0375 54.9805 53.824 55.2853 53.6978C55.5901 53.5716 55.9253 53.5382 56.249 53.6019C56.5726 53.6656 56.8703 53.8235 57.1045 54.0558C57.415 54.3692 57.5891 54.7926 57.5891 55.2338C57.5891 55.6749 57.415 56.0983 57.1045 56.4117V56.4187Z" fill="url(#paint3_linear)"/>
<path d="M11.7719 40.5592C12.5749 43.1234 13.814 45.5299 15.4348 47.673C15.518 47.7824 15.6218 47.8743 15.7405 47.9435C15.8592 48.0127 15.9904 48.0578 16.1265 48.0764C16.2626 48.0949 16.4011 48.0864 16.5339 48.0514C16.6668 48.0165 16.7914 47.9556 16.9008 47.8725C17.0101 47.7893 17.1021 47.6854 17.1713 47.5668C17.2405 47.4481 17.2856 47.3169 17.3041 47.1808C17.3227 47.0447 17.3142 46.9062 17.2792 46.7734C17.2442 46.6405 17.1834 46.5158 17.1003 46.4065C15.4345 44.2174 14.2087 41.7263 13.4904 39.0709C13.4904 39.0528 13.4904 39.0333 13.4904 39.0151C13.4904 38.997 13.475 38.9872 13.4694 38.9705C12.767 36.3148 12.5804 33.5491 12.9199 30.8231C12.9539 30.5477 12.8771 30.2701 12.7065 30.0512C12.5358 29.8324 12.2851 29.6904 12.0097 29.6563C11.7343 29.6223 11.4566 29.6991 11.2378 29.8698C11.019 30.0404 10.877 30.2911 10.8429 30.5665C10.5186 33.2256 10.6502 35.9205 11.2321 38.5353L7.66963 39.4936C7.24911 38.7966 6.6141 38.2546 5.85971 37.9489C5.10533 37.6431 4.27217 37.59 3.48506 37.7974C2.76693 37.9912 2.12228 38.3933 1.63239 38.953C1.1425 39.5127 0.82932 40.205 0.732344 40.9424C0.635368 41.6799 0.758939 42.4296 1.08747 43.0969C1.41601 43.7642 1.93479 44.3193 2.5784 44.6922C3.14753 45.0238 3.79441 45.1985 4.45309 45.1985C4.78281 45.1979 5.11104 45.1543 5.42949 45.0688C6.21781 44.8624 6.91641 44.4025 7.41773 43.7601C7.91904 43.1176 8.19526 42.3282 8.20386 41.5133L11.7719 40.5592ZM5.9135 42.2707C5.71987 42.6061 5.41593 42.864 5.05346 43.0004C4.691 43.1369 4.29244 43.1434 3.92572 43.0188C3.559 42.8943 3.2468 42.6465 3.04234 42.3176C2.83788 41.9886 2.7538 41.599 2.80443 41.2151C2.85506 40.8311 3.03727 40.4766 3.32001 40.2119C3.60275 39.9472 3.96852 39.7888 4.35498 39.7636C4.74145 39.7384 5.12469 39.848 5.43941 40.0737C5.75412 40.2994 5.98082 40.6273 6.08089 41.0014C6.13745 41.214 6.15116 41.4357 6.12123 41.6536C6.0913 41.8715 6.01831 42.0813 5.90653 42.2707H5.9135Z" fill="url(#paint4_linear)"/>
<path d="M67.5207 24.5395C67.2617 23.5771 66.6318 22.7566 65.7691 22.2578C64.9063 21.759 63.8809 21.6224 62.9177 21.8781C62.1297 22.085 61.4316 22.5451 60.9306 23.1874C60.4295 23.8298 60.1534 24.619 60.1447 25.4336L56.578 26.3891C55.7835 23.8479 54.5602 21.4613 52.9612 19.3325C52.8788 19.2226 52.7755 19.13 52.6573 19.06C52.5391 18.99 52.4082 18.944 52.2722 18.9246C52.1362 18.9051 51.9977 18.9127 51.8646 18.9468C51.7316 18.9809 51.6065 19.0409 51.4966 19.1233C51.3867 19.2057 51.2941 19.309 51.2241 19.4272C51.1541 19.5454 51.1081 19.6763 51.0886 19.8123C51.0692 19.9483 51.0768 20.0868 51.1109 20.2198C51.1449 20.3529 51.2049 20.478 51.2874 20.5879C52.9327 22.7648 54.1445 25.2376 54.8568 27.8718V27.9262C54.8615 27.9391 54.8671 27.9517 54.8735 27.9639C55.5664 30.5816 55.758 33.3066 55.4384 35.9955C55.4058 36.2709 55.4839 36.548 55.6554 36.7659C55.827 36.9837 56.0781 37.1246 56.3535 37.1574C56.3953 37.1574 56.4372 37.1644 56.4776 37.1644C56.7336 37.1641 56.9806 37.07 57.1719 36.8998C57.3631 36.7296 57.4854 36.4952 57.5154 36.241C57.8191 33.6251 57.6824 30.9768 57.1109 28.4061L60.6747 27.4562C61.1415 28.2336 61.8737 28.816 62.7362 29.0958C63.5987 29.3756 64.5334 29.334 65.3676 28.9786C66.2018 28.6231 66.8794 27.9779 67.2751 27.1621C67.6708 26.3462 67.7581 25.4147 67.5207 24.5395ZM64.3125 27.1284C63.8843 27.2426 63.4283 27.1824 63.0445 26.961C62.6606 26.7395 62.3803 26.3748 62.2649 25.9469C62.151 25.5189 62.2115 25.0633 62.4329 24.6798C62.6543 24.2962 63.0187 24.0161 63.4463 23.9007C63.8655 23.8121 64.3028 23.8876 64.668 24.1117C65.0332 24.3358 65.2985 24.6914 65.4094 25.1053C65.5202 25.5192 65.4681 25.9598 65.2638 26.3365C65.0595 26.7131 64.7185 26.997 64.3111 27.1298L64.3125 27.1284Z" fill="url(#paint5_linear)"/>
<path d="M48.1131 18.0561C48.016 18.1533 47.9389 18.2687 47.8863 18.3956C47.8337 18.5226 47.8066 18.6587 47.8066 18.7961C47.8066 18.9335 47.8337 19.0696 47.8863 19.1966C47.9389 19.3235 48.016 19.4389 48.1131 19.5361C48.2103 19.6332 48.3257 19.7103 48.4526 19.7629C48.5796 19.8155 48.7157 19.8426 48.8531 19.8426C48.9905 19.8426 49.1266 19.8155 49.2536 19.7629C49.3805 19.7103 49.4959 19.6332 49.5931 19.5361L53.2811 15.8481C53.9438 16.1405 54.6884 16.1898 55.3839 15.9874C56.0794 15.785 56.6813 15.3439 57.0836 14.7415C57.486 14.1392 57.663 13.4143 57.5837 12.6943C57.5043 11.9743 57.1736 11.3053 56.6497 10.8051C56.1258 10.3049 55.4423 10.0054 54.7194 9.95935C53.9965 9.91332 53.2805 10.1237 52.6974 10.5534C52.1143 10.9831 51.7014 11.6047 51.5314 12.3088C51.3613 13.013 51.445 13.7545 51.7677 14.403L48.1131 18.0561ZM53.8097 12.3484C53.9463 12.2118 54.1203 12.1188 54.3097 12.0812C54.4991 12.0435 54.6954 12.0629 54.8738 12.1368C55.0522 12.2107 55.2047 12.3358 55.312 12.4964C55.4192 12.6569 55.4765 12.8457 55.4765 13.0388C55.4765 13.2319 55.4192 13.4207 55.312 13.5813C55.2047 13.7418 55.0522 13.867 54.8738 13.9409C54.6954 14.0148 54.4991 14.0341 54.3097 13.9965C54.1203 13.9588 53.9463 13.8658 53.8097 13.7293C53.719 13.6386 53.6471 13.531 53.598 13.4125C53.549 13.294 53.5237 13.1671 53.5237 13.0388C53.5237 12.9106 53.549 12.7836 53.598 12.6651C53.6471 12.5467 53.719 12.439 53.8097 12.3484Z" fill="url(#paint6_linear)"/>
<path d="M20.2517 48.8763C20.3489 48.7791 20.4259 48.6638 20.4785 48.5368C20.5311 48.4098 20.5582 48.2737 20.5582 48.1363C20.5582 47.9989 20.5311 47.8628 20.4785 47.7358C20.4259 47.6089 20.3489 47.4935 20.2517 47.3963C20.1545 47.2992 20.0391 47.2221 19.9122 47.1695C19.7852 47.1169 19.6491 47.0898 19.5117 47.0898C19.3743 47.0898 19.2382 47.1169 19.1112 47.1695C18.9843 47.2221 18.8689 47.2992 18.7717 47.3963L15.0837 51.0843C14.5198 50.8389 13.8951 50.7686 13.2907 50.8825C12.6863 50.9964 12.1301 51.2893 11.6942 51.7232C11.2926 52.1214 11.0088 52.6229 10.8743 53.1722C10.7397 53.7216 10.7596 54.2974 10.9317 54.8362C11.1038 55.375 11.4215 55.8557 11.8496 56.2253C12.2778 56.5949 12.7997 56.8389 13.3579 56.9305C13.916 57.0221 14.4886 56.9577 15.0124 56.7443C15.5362 56.531 15.9909 56.177 16.3262 55.7215C16.6614 55.266 16.8643 54.7267 16.9124 54.1631C16.9605 53.5996 16.8519 53.0337 16.5986 52.528L20.2517 48.8763ZM14.5551 54.584C14.4185 54.7206 14.2446 54.8136 14.0552 54.8512C13.8658 54.8889 13.6694 54.8696 13.491 54.7957C13.3126 54.7217 13.1601 54.5966 13.0528 54.436C12.9456 54.2755 12.8883 54.0867 12.8883 53.8936C12.8883 53.7005 12.9456 53.5117 13.0528 53.3511C13.1601 53.1906 13.3126 53.0654 13.491 52.9915C13.6694 52.9176 13.8658 52.8983 14.0552 52.9359C14.2446 52.9736 14.4185 53.0666 14.5551 53.2031C14.6458 53.2938 14.7177 53.4014 14.7668 53.5199C14.8158 53.6384 14.8411 53.7654 14.8411 53.8936C14.8411 54.0218 14.8158 54.1488 14.7668 54.2673C14.7177 54.3857 14.6458 54.4934 14.5551 54.584Z" fill="url(#paint7_linear)"/>
<path d="M26.4652 8.70872L27.8014 13.6953C27.861 13.9177 27.9922 14.1142 28.1748 14.2544C28.3574 14.3947 28.5811 14.4707 28.8113 14.4709C28.9026 14.4709 28.9936 14.4592 29.0819 14.436C29.3498 14.3637 29.5782 14.1883 29.717 13.948C29.8558 13.7078 29.8938 13.4223 29.8226 13.1541L28.4724 8.11591C28.9667 7.75023 29.3398 7.24448 29.5432 6.66423C29.7466 6.08399 29.7711 5.45601 29.6134 4.86171C29.4687 4.31508 29.1758 3.81906 28.767 3.42838C28.3583 3.0377 27.8495 2.76756 27.2969 2.64778C26.7443 2.52799 26.1693 2.56321 25.6355 2.74956C25.1016 2.93591 24.6296 3.26614 24.2716 3.70379C23.9136 4.14145 23.6835 4.66951 23.6066 5.2297C23.5297 5.7899 23.6092 6.36043 23.8361 6.87834C24.063 7.39625 24.4286 7.84139 24.8926 8.16463C25.3565 8.48787 25.9007 8.67665 26.4652 8.71011V8.70872ZM26.3954 4.71246C26.4778 4.69046 26.5626 4.67921 26.6479 4.67898C26.8958 4.67872 27.1345 4.77278 27.3156 4.94206C27.4968 5.11135 27.6067 5.3432 27.6232 5.59056C27.6396 5.83793 27.5614 6.08229 27.4043 6.27408C27.2472 6.46587 27.023 6.59072 26.7773 6.62331C26.5315 6.65589 26.2825 6.59377 26.0809 6.44955C25.8792 6.30533 25.74 6.08981 25.6914 5.8467C25.6429 5.60359 25.6886 5.35111 25.8193 5.14047C25.95 4.92984 26.156 4.77682 26.3954 4.71246Z" fill="url(#paint8_linear)"/>
<path d="M43.2492 58.6207C42.8361 58.3859 42.3737 58.2511 41.899 58.2274L40.5628 53.2394C40.5313 53.1022 40.4726 52.9727 40.39 52.8587C40.3074 52.7447 40.2027 52.6486 40.0821 52.5759C39.9615 52.5033 39.8275 52.4558 39.6882 52.4361C39.5488 52.4164 39.4069 52.425 39.2709 52.4614C39.1349 52.4978 39.0077 52.5612 38.8968 52.6478C38.7858 52.7345 38.6935 52.8426 38.6253 52.9658C38.5571 53.0889 38.5144 53.2245 38.4998 53.3645C38.4852 53.5045 38.4989 53.646 38.5402 53.7806L39.889 58.8146C39.3934 59.1801 39.0196 59.6866 38.8163 60.2679C38.613 60.8492 38.5897 61.4783 38.7494 62.073C38.9237 62.724 39.3075 63.2995 39.8414 63.7107C40.3754 64.1218 41.0298 64.3458 41.7037 64.348C41.9736 64.3477 42.2422 64.3125 42.503 64.2434C43.0896 64.0866 43.6164 63.7592 44.0169 63.3029C44.4173 62.8465 44.6734 62.2816 44.7527 61.6796C44.832 61.0777 44.7309 60.4657 44.4623 59.9212C44.1937 59.3767 43.7696 58.9241 43.2437 58.6207H43.2492ZM42.5602 61.7675C42.4797 61.9064 42.3663 62.0233 42.2299 62.1079C42.0935 62.1925 41.9383 62.2421 41.7781 62.2525C41.618 62.2628 41.4577 62.2335 41.3116 62.1671C41.1655 62.1008 41.0379 61.9994 40.9403 61.872C40.8427 61.7446 40.778 61.5951 40.7519 61.4367C40.7258 61.2784 40.7392 61.116 40.7908 60.964C40.8424 60.8121 40.9307 60.6751 41.0479 60.5654C41.165 60.4557 41.3074 60.3766 41.4624 60.335C41.5866 60.3022 41.7161 60.2943 41.8434 60.3116C41.9706 60.3289 42.0932 60.3712 42.2042 60.4359C42.3151 60.5007 42.4121 60.5868 42.4897 60.6891C42.5673 60.7915 42.624 60.9082 42.6564 61.0324C42.7222 61.2806 42.6877 61.5447 42.5602 61.7675Z" fill="url(#paint9_linear)"/>
<path d="M5.5367 29.0497C6.15807 29.2144 6.81547 29.1799 7.41612 28.9509C8.01677 28.7219 8.53034 28.31 8.88436 27.7734L13.864 29.1083C13.955 29.1322 14.0488 29.1439 14.143 29.1432C14.3971 29.1435 14.6428 29.0513 14.8339 28.8838C15.025 28.7162 15.1486 28.4848 15.1816 28.2328C15.2146 27.9808 15.1547 27.7253 15.0131 27.5143C14.8715 27.3032 14.6579 27.1509 14.4122 27.0858L9.37535 25.737C9.30595 25.1255 9.0543 24.549 8.65308 24.0823C8.25187 23.6157 7.71961 23.2805 7.12544 23.1202C6.33914 22.9095 5.50134 23.0198 4.79637 23.4269C4.09139 23.8339 3.57698 24.5043 3.3663 25.2906C3.15562 26.0769 3.26593 26.9147 3.67296 27.6197C4.07999 28.3247 4.75039 28.8391 5.5367 29.0497ZM5.38745 25.8332C5.43696 25.6467 5.5406 25.4791 5.68528 25.3515C5.82997 25.2239 6.00922 25.142 6.2004 25.1162C6.39159 25.0903 6.58615 25.1217 6.75951 25.2063C6.93288 25.291 7.07729 25.4251 7.17451 25.5917C7.27173 25.7584 7.31741 25.9501 7.30578 26.1426C7.29414 26.3352 7.22572 26.52 7.10915 26.6737C6.99257 26.8275 6.83308 26.9432 6.65078 27.0064C6.46848 27.0695 6.27157 27.0773 6.08488 27.0286C5.96044 26.9962 5.84364 26.9395 5.74117 26.8618C5.63871 26.7841 5.5526 26.6869 5.4878 26.5758C5.42299 26.4647 5.38077 26.342 5.36355 26.2145C5.34633 26.0871 5.35445 25.9575 5.38745 25.8332Z" fill="url(#paint10_linear)"/>
<path d="M62.8267 37.8865C62.2054 37.7149 61.5455 37.7463 60.9433 37.9761C60.341 38.206 59.828 38.6222 59.479 39.1642L54.4896 37.8279C54.3569 37.7924 54.2185 37.7833 54.0823 37.8013C53.9461 37.8192 53.8148 37.8638 53.6958 37.9326C53.5768 38.0013 53.4726 38.0927 53.3889 38.2018C53.3053 38.3108 53.244 38.4352 53.2085 38.5679C53.1729 38.7006 53.1639 38.839 53.1818 38.9752C53.1998 39.1114 53.2444 39.2428 53.3131 39.3617C53.3818 39.4807 53.4733 39.585 53.5823 39.6686C53.6913 39.7522 53.8157 39.8135 53.9484 39.8491L58.9867 41.1993C59.056 41.81 59.3072 42.3858 59.7076 42.8521C60.108 43.3184 60.6392 43.6537 61.2324 43.8147C62.0151 44.0148 62.8451 43.8982 63.5424 43.4903C64.2397 43.0823 64.748 42.4158 64.9569 41.6354C65.1659 40.855 65.0587 40.0237 64.6586 39.3218C64.2584 38.62 63.5977 38.1042 62.8197 37.8865H62.8267ZM62.976 41.103C62.9261 41.2896 62.8219 41.4572 62.6768 41.5846C62.5316 41.712 62.3519 41.7935 62.1605 41.8188C61.969 41.844 61.7743 41.812 61.6011 41.7266C61.4278 41.6412 61.2838 41.5064 61.1872 41.3391C61.0906 41.1719 61.0458 40.9797 61.0584 40.787C61.071 40.5943 61.1405 40.4096 61.258 40.2564C61.3756 40.1032 61.536 39.9882 61.7189 39.9262C61.9018 39.8641 62.0989 39.8576 62.2855 39.9076C62.5355 39.9747 62.7487 40.1382 62.8782 40.3624C63.0077 40.5866 63.0428 40.853 62.976 41.103Z" fill="url(#paint11_linear)"/>
<path d="M16.0625 34.5981C16.0625 35.4588 16.3178 36.3003 16.796 37.016C17.2743 37.7317 17.9541 38.2895 18.7494 38.6189C19.5447 38.9482 20.4198 39.0343 21.264 38.8663C22.1082 38.6983 22.8837 38.2836 23.4922 37.6749C24.1008 37.0661 24.5152 36.2905 24.683 35.4462C24.8507 34.6019 24.7643 33.7269 24.4347 32.9317C24.1051 32.1365 23.5471 31.4569 22.8313 30.9789C22.1154 30.5008 21.2739 30.2458 20.4131 30.2461C19.2594 30.2476 18.1535 30.7066 17.3379 31.5225C16.5223 32.3383 16.0636 33.4444 16.0625 34.5981ZM22.6727 34.5981C22.6727 35.045 22.5402 35.4819 22.2919 35.8535C22.0436 36.2251 21.6907 36.5147 21.2778 36.6857C20.8649 36.8567 20.4106 36.9015 19.9722 36.8143C19.5339 36.7271 19.1313 36.5119 18.8152 36.1959C18.4992 35.8799 18.284 35.4772 18.1968 35.0389C18.1096 34.6006 18.1544 34.1462 18.3254 33.7333C18.4964 33.3204 18.7861 32.9675 19.1577 32.7192C19.5293 32.4709 19.9661 32.3384 20.4131 32.3384C21.0121 32.3391 21.5865 32.5774 22.0101 33.001C22.4337 33.4247 22.672 33.999 22.6727 34.5981Z" fill="url(#paint12_linear)"/>
<path d="M34.1719 52.8554C35.5077 52.8554 36.8135 52.4593 37.9241 51.7172C39.0348 50.9751 39.9005 49.9203 40.4116 48.6862C40.9228 47.452 41.0566 46.0941 40.796 44.7839C40.5354 43.4738 39.8921 42.2704 38.9476 41.3258C38.003 40.3813 36.7996 39.738 35.4895 39.4774C34.1794 39.2168 32.8214 39.3506 31.5873 39.8618C30.3531 40.373 29.2983 41.2386 28.5562 42.3493C27.8141 43.46 27.418 44.7658 27.418 46.1016C27.4198 47.8922 28.132 49.609 29.3982 50.8752C30.6644 52.1414 32.3812 52.8536 34.1719 52.8554ZM34.1719 41.4399C35.0938 41.4399 35.9951 41.7133 36.7617 42.2256C37.5283 42.7378 38.1258 43.4658 38.4786 44.3176C38.8315 45.1694 38.9238 46.1067 38.7439 47.011C38.564 47.9153 38.1201 48.7459 37.4681 49.3978C36.8162 50.0497 35.9856 50.4937 35.0813 50.6736C34.177 50.8535 33.2397 50.7611 32.3879 50.4083C31.5361 50.0555 30.8081 49.458 30.2959 48.6914C29.7836 47.9248 29.5103 47.0235 29.5103 46.1016C29.5117 44.8657 30.0033 43.6808 30.8772 42.8069C31.7511 41.933 32.936 41.4414 34.1719 41.4399Z" fill="url(#paint13_linear)"/>
<path d="M32.3318 14.6211C31.3596 14.62 30.409 14.9073 29.6001 15.4466C28.7913 15.9859 28.1606 16.7529 27.7878 17.6508C27.415 18.5486 27.3169 19.5368 27.5059 20.4904C27.6948 21.444 28.1624 22.3202 28.8494 23.008C29.5365 23.6958 30.4121 24.1644 31.3655 24.3544C32.3188 24.5445 33.3072 24.4475 34.2054 24.0757C35.1037 23.704 35.8715 23.0741 36.4117 22.2659C36.9519 21.4576 37.2403 20.5073 37.2403 19.5352C37.2392 18.2332 36.7219 16.9848 35.8017 16.0636C34.8816 15.1424 33.6338 14.6237 32.3318 14.6211ZM32.3318 22.3556C31.7734 22.3567 31.2272 22.1921 30.7624 21.8826C30.2976 21.5732 29.9351 21.1328 29.7207 20.6172C29.5063 20.1016 29.4497 19.534 29.558 18.9862C29.6664 18.4384 29.9349 17.9351 30.3294 17.54C30.724 17.1448 31.2269 16.8756 31.7745 16.7665C32.3221 16.6573 32.8898 16.713 33.4057 16.9267C33.9216 17.1403 34.3626 17.5022 34.6727 17.9665C34.9829 18.4309 35.1483 18.9768 35.148 19.5352C35.1473 20.2822 34.8504 20.9986 34.3226 21.5272C33.7947 22.0559 33.0788 22.3537 32.3318 22.3556Z" fill="url(#paint14_linear)"/>
<path d="M47.0675 21.9688C46.2581 21.9685 45.4667 22.2083 44.7935 22.6578C44.1203 23.1073 43.5955 23.7464 43.2856 24.4942C42.9756 25.2419 42.8943 26.0649 43.0521 26.8588C43.2099 27.6528 43.5995 28.3821 44.1718 28.9546C44.7441 29.5271 45.4733 29.917 46.2672 30.075C47.0611 30.2331 47.8841 30.1521 48.632 29.8424C49.3798 29.5327 50.0191 29.0081 50.4688 28.3351C50.9186 27.6621 51.1586 26.8708 51.1586 26.0613C51.1579 24.9763 50.7267 23.936 49.9597 23.1687C49.1926 22.4014 48.1525 21.9699 47.0675 21.9688ZM47.0675 28.0601C46.6718 28.0604 46.2849 27.9433 45.9557 27.7236C45.6266 27.5039 45.37 27.1915 45.2184 26.826C45.0669 26.4604 45.0271 26.0581 45.1043 25.67C45.1814 25.2819 45.372 24.9253 45.6518 24.6455C45.9316 24.3657 46.2881 24.1751 46.6763 24.098C47.0644 24.0209 47.4667 24.0606 47.8322 24.2122C48.1978 24.3637 48.5102 24.6203 48.7298 24.9495C48.9495 25.2786 49.0666 25.6655 49.0664 26.0613C49.0656 26.5912 48.8548 27.0991 48.4801 27.4738C48.1054 27.8485 47.5974 28.0594 47.0675 28.0601Z" fill="url(#paint15_linear)"/>
<path d="M32.4062 31.2941C32.4063 31.9286 32.5944 32.5489 32.9469 33.0765C33.2994 33.6041 33.8005 34.0153 34.3867 34.2581C34.9729 34.5009 35.618 34.5644 36.2403 34.4406C36.8626 34.3169 37.4343 34.0113 37.8829 33.5626C38.3316 33.114 38.6372 32.5423 38.761 31.92C38.8847 31.2977 38.8212 30.6526 38.5784 30.0664C38.3356 29.4802 37.9244 28.9791 37.3968 28.6266C36.8692 28.2741 36.2489 28.0859 35.6144 28.0859C34.7636 28.0859 33.9476 28.4239 33.3459 29.0256C32.7443 29.6272 32.4062 30.4433 32.4062 31.2941ZM36.7303 31.2941C36.7303 31.5148 36.6649 31.7306 36.5423 31.9141C36.4196 32.0976 36.2454 32.2406 36.0415 32.3251C35.8376 32.4095 35.6132 32.4316 35.3967 32.3886C35.1803 32.3455 34.9814 32.2392 34.8254 32.0832C34.6693 31.9271 34.563 31.7283 34.52 31.5118C34.4769 31.2954 34.499 31.071 34.5835 30.8671C34.6679 30.6632 34.811 30.4889 34.9945 30.3663C35.178 30.2437 35.3937 30.1782 35.6144 30.1782C35.7612 30.1779 35.9066 30.2065 36.0423 30.2624C36.178 30.3183 36.3014 30.4004 36.4053 30.5041C36.5092 30.6077 36.5916 30.7309 36.6479 30.8664C36.7041 31.002 36.7331 31.1473 36.7331 31.2941H36.7303Z" fill="url(#paint16_linear)"/>
<path d="M47.0676 39.3477C46.433 39.3477 45.8128 39.5358 45.2852 39.8883C44.7576 40.2408 44.3464 40.7419 44.1036 41.3281C43.8608 41.9143 43.7972 42.5594 43.921 43.1817C44.0448 43.804 44.3504 44.3757 44.799 44.8243C45.2477 45.273 45.8193 45.5785 46.4417 45.7023C47.064 45.8261 47.7091 45.7626 48.2953 45.5198C48.8815 45.277 49.3825 44.8658 49.7351 44.3382C50.0876 43.8106 50.2757 43.1903 50.2757 42.5558C50.2757 41.705 49.9377 40.889 49.3361 40.2873C48.7344 39.6857 47.9184 39.3477 47.0676 39.3477ZM47.0676 43.6717C46.8469 43.6717 46.6311 43.6063 46.4476 43.4836C46.2641 43.361 46.1211 43.1867 46.0366 42.9828C45.9522 42.7789 45.9301 42.5546 45.9731 42.3381C46.0162 42.1217 46.1224 41.9228 46.2785 41.7668C46.4346 41.6107 46.6334 41.5044 46.8499 41.4614C47.0663 41.4183 47.2907 41.4404 47.4946 41.5249C47.6985 41.6093 47.8728 41.7524 47.9954 41.9359C48.118 42.1194 48.1834 42.3351 48.1834 42.5558C48.1838 42.7026 48.1552 42.848 48.0993 42.9837C48.0434 43.1194 47.9613 43.2428 47.8576 43.3467C47.7539 43.4506 47.6308 43.533 47.4952 43.5893C47.3597 43.6455 47.2143 43.6745 47.0676 43.6745V43.6717Z" fill="url(#paint17_linear)"/>
</g>
<defs>
<linearGradient id="paint0_linear" x1="30.1982" y1="6.92781" x2="48.8248" y2="6.92781" gradientUnits="userSpaceOnUse">
<stop stop-color="#11CDD6"/>
<stop offset="1" stop-color="#3DB5E6"/>
</linearGradient>
<linearGradient id="paint1_linear" x1="19.6094" y1="57.2764" x2="38.1386" y2="57.2764" gradientUnits="userSpaceOnUse">
<stop stop-color="#11CDD6"/>
<stop offset="1" stop-color="#3DB5E6"/>
</linearGradient>
<linearGradient id="paint2_linear" x1="8.63965" y1="15.4111" x2="26.6312" y2="15.4111" gradientUnits="userSpaceOnUse">
<stop stop-color="#11CDD6"/>
<stop offset="1" stop-color="#3DB5E6"/>
</linearGradient>
<linearGradient id="paint3_linear" x1="41.8164" y1="48.5796" x2="59.6823" y2="48.5796" gradientUnits="userSpaceOnUse">
<stop stop-color="#11CDD6"/>
<stop offset="1" stop-color="#3DB5E6"/>
</linearGradient>
<linearGradient id="paint4_linear" x1="0.700195" y1="37.3307" x2="17.3137" y2="37.3307" gradientUnits="userSpaceOnUse">
<stop stop-color="#11CDD6"/>
<stop offset="1" stop-color="#3DB5E6"/>
</linearGradient>
<linearGradient id="paint5_linear" x1="51.0781" y1="26.5184" x2="67.6517" y2="26.5184" gradientUnits="userSpaceOnUse">
<stop stop-color="#11CDD6"/>
<stop offset="1" stop-color="#3DB5E6"/>
</linearGradient>
<linearGradient id="paint6_linear" x1="47.8066" y1="14.0737" x2="57.6022" y2="14.0737" gradientUnits="userSpaceOnUse">
<stop stop-color="#11CDD6"/>
<stop offset="1" stop-color="#3DB5E6"/>
</linearGradient>
<linearGradient id="paint7_linear" x1="10.7861" y1="51.207" x2="20.5582" y2="51.207" gradientUnits="userSpaceOnUse">
<stop stop-color="#11CDD6"/>
<stop offset="1" stop-color="#3DB5E6"/>
</linearGradient>
<linearGradient id="paint8_linear" x1="23.5781" y1="7.53344" x2="29.8577" y2="7.53344" gradientUnits="userSpaceOnUse">
<stop stop-color="#11CDD6"/>
<stop offset="1" stop-color="#3DB5E6"/>
</linearGradient>
<linearGradient id="paint9_linear" x1="38.4941" y1="57.3934" x2="44.779" y2="57.3934" gradientUnits="userSpaceOnUse">
<stop stop-color="#11CDD6"/>
<stop offset="1" stop-color="#3DB5E6"/>
</linearGradient>
<linearGradient id="paint10_linear" x1="3.26172" y1="25.5725" x2="15.1905" y2="25.5725" gradientUnits="userSpaceOnUse">
<stop stop-color="#11CDD6"/>
<stop offset="1" stop-color="#3DB5E6"/>
</linearGradient>
<linearGradient id="paint11_linear" x1="53.1729" y1="40.3328" x2="65.0614" y2="40.3328" gradientUnits="userSpaceOnUse">
<stop stop-color="#11CDD6"/>
<stop offset="1" stop-color="#3DB5E6"/>
</linearGradient>
<linearGradient id="paint12_linear" x1="16.0625" y1="33.8727" x2="24.7664" y2="33.8727" gradientUnits="userSpaceOnUse">
<stop stop-color="#11CDD6"/>
<stop offset="1" stop-color="#3DB5E6"/>
</linearGradient>
<linearGradient id="paint13_linear" x1="27.418" y1="44.9759" x2="40.9258" y2="44.9759" gradientUnits="userSpaceOnUse">
<stop stop-color="#11CDD6"/>
<stop offset="1" stop-color="#3DB5E6"/>
</linearGradient>
<linearGradient id="paint14_linear" x1="27.4121" y1="18.7162" x2="37.2403" y2="18.7162" gradientUnits="userSpaceOnUse">
<stop stop-color="#11CDD6"/>
<stop offset="1" stop-color="#3DB5E6"/>
</linearGradient>
<linearGradient id="paint15_linear" x1="42.9736" y1="25.3792" x2="51.1586" y2="25.3792" gradientUnits="userSpaceOnUse">
<stop stop-color="#11CDD6"/>
<stop offset="1" stop-color="#3DB5E6"/>
</linearGradient>
<linearGradient id="paint16_linear" x1="32.4063" y1="30.7594" x2="38.8226" y2="30.7594" gradientUnits="userSpaceOnUse">
<stop stop-color="#11CDD6"/>
<stop offset="1" stop-color="#3DB5E6"/>
</linearGradient>
<linearGradient id="paint17_linear" x1="43.8594" y1="42.0211" x2="50.2757" y2="42.0211" gradientUnits="userSpaceOnUse">
<stop stop-color="#11CDD6"/>
<stop offset="1" stop-color="#3DB5E6"/>
</linearGradient>
<clipPath id="clip0">
<rect width="66.9531" height="66.9531" fill="white" transform="translate(0.695312)"/>
</clipPath>
</defs>
</svg>
