<svg width="120" height="27" viewBox="0 0 120 27" fill="none" xmlns="http://www.w3.org/2000/svg">
<path d="M34.416 2.44C35.008 2.44 35.5253 2.55467 35.968 2.784C36.416 3.008 36.76 3.33333 37 3.76C37.2453 4.18133 37.368 4.67467 37.368 5.24C37.368 5.80533 37.2453 6.296 37 6.712C36.76 7.128 36.416 7.448 35.968 7.672C35.5253 7.89067 35.008 8 34.416 8H32.6V2.44H34.416ZM34.416 7.256C35.0667 7.256 35.5653 7.08 35.912 6.728C36.2587 6.376 36.432 5.88 36.432 5.24C36.432 4.59467 36.2587 4.09067 35.912 3.728C35.5653 3.36533 35.0667 3.184 34.416 3.184H33.512V7.256H34.416ZM40.1839 8.072C39.7679 8.072 39.3919 7.97867 39.0559 7.792C38.7199 7.6 38.4559 7.33333 38.2639 6.992C38.0719 6.64533 37.9759 6.24533 37.9759 5.792C37.9759 5.344 38.0745 4.94667 38.2719 4.6C38.4692 4.25333 38.7385 3.98667 39.0799 3.8C39.4212 3.61333 39.8025 3.52 40.2239 3.52C40.6452 3.52 41.0265 3.61333 41.3679 3.8C41.7092 3.98667 41.9785 4.25333 42.1759 4.6C42.3732 4.94667 42.4719 5.344 42.4719 5.792C42.4719 6.24 42.3705 6.63733 42.1679 6.984C41.9652 7.33067 41.6879 7.6 41.3359 7.792C40.9892 7.97867 40.6052 8.072 40.1839 8.072ZM40.1839 7.28C40.4185 7.28 40.6372 7.224 40.8399 7.112C41.0479 7 41.2159 6.832 41.3439 6.608C41.4719 6.384 41.5359 6.112 41.5359 5.792C41.5359 5.472 41.4745 5.20267 41.3519 4.984C41.2292 4.76 41.0665 4.592 40.8639 4.48C40.6612 4.368 40.4425 4.312 40.2079 4.312C39.9732 4.312 39.7545 4.368 39.5519 4.48C39.3545 4.592 39.1972 4.76 39.0799 4.984C38.9625 5.20267 38.9039 5.472 38.9039 5.792C38.9039 6.26667 39.0239 6.63467 39.2639 6.896C39.5092 7.152 39.8159 7.28 40.1839 7.28ZM49.2934 3.592L47.9254 8H46.9654L46.0774 4.744L45.1894 8H44.2294L42.8534 3.592H43.7814L44.7014 7.136L45.6374 3.592H46.5894L47.4854 7.12L48.3974 3.592H49.2934ZM52.199 3.52C52.5457 3.52 52.855 3.592 53.127 3.736C53.4043 3.88 53.6203 4.09333 53.775 4.376C53.9297 4.65867 54.007 5 54.007 5.4V8H53.103V5.536C53.103 5.14133 53.0043 4.84 52.807 4.632C52.6097 4.41867 52.3403 4.312 51.999 4.312C51.6577 4.312 51.3857 4.41867 51.183 4.632C50.9857 4.84 50.887 5.14133 50.887 5.536V8H49.975V3.592H50.887V4.096C51.0363 3.91467 51.2257 3.77333 51.455 3.672C51.6897 3.57067 51.9377 3.52 52.199 3.52ZM56.0823 2.08V8H55.1703V2.08H56.0823ZM59.1917 8.072C58.7757 8.072 58.3997 7.97867 58.0637 7.792C57.7277 7.6 57.4637 7.33333 57.2717 6.992C57.0797 6.64533 56.9837 6.24533 56.9837 5.792C56.9837 5.344 57.0824 4.94667 57.2797 4.6C57.477 4.25333 57.7464 3.98667 58.0877 3.8C58.429 3.61333 58.8104 3.52 59.2317 3.52C59.653 3.52 60.0344 3.61333 60.3757 3.8C60.717 3.98667 60.9864 4.25333 61.1837 4.6C61.381 4.94667 61.4797 5.344 61.4797 5.792C61.4797 6.24 61.3784 6.63733 61.1757 6.984C60.973 7.33067 60.6957 7.6 60.3437 7.792C59.997 7.97867 59.613 8.072 59.1917 8.072ZM59.1917 7.28C59.4264 7.28 59.645 7.224 59.8477 7.112C60.0557 7 60.2237 6.832 60.3517 6.608C60.4797 6.384 60.5437 6.112 60.5437 5.792C60.5437 5.472 60.4824 5.20267 60.3597 4.984C60.237 4.76 60.0744 4.592 59.8717 4.48C59.669 4.368 59.4504 4.312 59.2157 4.312C58.981 4.312 58.7624 4.368 58.5597 4.48C58.3624 4.592 58.205 4.76 58.0877 4.984C57.9704 5.20267 57.9117 5.472 57.9117 5.792C57.9117 6.26667 58.0317 6.63467 58.2717 6.896C58.517 7.152 58.8237 7.28 59.1917 7.28ZM62.0773 5.776C62.0773 5.33333 62.1679 4.94133 62.3493 4.6C62.5359 4.25867 62.7866 3.99467 63.1013 3.808C63.4213 3.616 63.7733 3.52 64.1573 3.52C64.5039 3.52 64.8053 3.58933 65.0613 3.728C65.3226 3.86133 65.5306 4.02933 65.6853 4.232V3.592H66.6053V8H65.6853V7.344C65.5306 7.552 65.3199 7.72533 65.0533 7.864C64.7866 8.00267 64.4826 8.072 64.1413 8.072C63.7626 8.072 63.4159 7.976 63.1013 7.784C62.7866 7.58667 62.5359 7.31467 62.3493 6.968C62.1679 6.616 62.0773 6.21867 62.0773 5.776ZM65.6853 5.792C65.6853 5.488 65.6213 5.224 65.4933 5C65.3706 4.776 65.2079 4.60533 65.0053 4.488C64.8026 4.37067 64.5839 4.312 64.3493 4.312C64.1146 4.312 63.8959 4.37067 63.6933 4.488C63.4906 4.6 63.3253 4.768 63.1973 4.992C63.0746 5.21067 63.0133 5.472 63.0133 5.776C63.0133 6.08 63.0746 6.34667 63.1973 6.576C63.3253 6.80533 63.4906 6.98133 63.6933 7.104C63.9013 7.22133 64.1199 7.28 64.3493 7.28C64.5839 7.28 64.8026 7.22133 65.0053 7.104C65.2079 6.98667 65.3706 6.816 65.4933 6.592C65.6213 6.36267 65.6853 6.096 65.6853 5.792ZM67.4991 5.776C67.4991 5.33333 67.5898 4.94133 67.7711 4.6C67.9578 4.25867 68.2085 3.99467 68.5231 3.808C68.8431 3.616 69.1978 3.52 69.5871 3.52C69.8751 3.52 70.1578 3.584 70.4351 3.712C70.7178 3.83467 70.9418 4 71.1071 4.208V2.08H72.0271V8H71.1071V7.336C70.9578 7.54933 70.7498 7.72533 70.4831 7.864C70.2218 8.00267 69.9205 8.072 69.5791 8.072C69.1951 8.072 68.8431 7.976 68.5231 7.784C68.2085 7.58667 67.9578 7.31467 67.7711 6.968C67.5898 6.616 67.4991 6.21867 67.4991 5.776ZM71.1071 5.792C71.1071 5.488 71.0431 5.224 70.9151 5C70.7925 4.776 70.6298 4.60533 70.4271 4.488C70.2245 4.37067 70.0058 4.312 69.7711 4.312C69.5365 4.312 69.3178 4.37067 69.1151 4.488C68.9125 4.6 68.7471 4.768 68.6191 4.992C68.4965 5.21067 68.4351 5.472 68.4351 5.776C68.4351 6.08 68.4965 6.34667 68.6191 6.576C68.7471 6.80533 68.9125 6.98133 69.1151 7.104C69.3231 7.22133 69.5418 7.28 69.7711 7.28C70.0058 7.28 70.2245 7.22133 70.4271 7.104C70.6298 6.98667 70.7925 6.816 70.9151 6.592C71.0431 6.36267 71.1071 6.096 71.1071 5.792ZM77.2151 8.072C76.7991 8.072 76.4231 7.97867 76.0871 7.792C75.7511 7.6 75.4871 7.33333 75.2951 6.992C75.1031 6.64533 75.0071 6.24533 75.0071 5.792C75.0071 5.344 75.1058 4.94667 75.3031 4.6C75.5005 4.25333 75.7698 3.98667 76.1111 3.8C76.4525 3.61333 76.8338 3.52 77.2551 3.52C77.6765 3.52 78.0578 3.61333 78.3991 3.8C78.7405 3.98667 79.0098 4.25333 79.2071 4.6C79.4045 4.94667 79.5031 5.344 79.5031 5.792C79.5031 6.24 79.4018 6.63733 79.1991 6.984C78.9965 7.33067 78.7191 7.6 78.3671 7.792C78.0205 7.97867 77.6365 8.072 77.2151 8.072ZM77.2151 7.28C77.4498 7.28 77.6685 7.224 77.8711 7.112C78.0791 7 78.2471 6.832 78.3751 6.608C78.5031 6.384 78.5671 6.112 78.5671 5.792C78.5671 5.472 78.5058 5.20267 78.3831 4.984C78.2605 4.76 78.0978 4.592 77.8951 4.48C77.6925 4.368 77.4738 4.312 77.2391 4.312C77.0045 4.312 76.7858 4.368 76.5831 4.48C76.3858 4.592 76.2285 4.76 76.1111 4.984C75.9938 5.20267 75.9351 5.472 75.9351 5.792C75.9351 6.26667 76.0551 6.63467 76.2951 6.896C76.5405 7.152 76.8471 7.28 77.2151 7.28ZM82.6287 3.52C82.9754 3.52 83.2847 3.592 83.5567 3.736C83.834 3.88 84.05 4.09333 84.2047 4.376C84.3594 4.65867 84.4367 5 84.4367 5.4V8H83.5327V5.536C83.5327 5.14133 83.434 4.84 83.2367 4.632C83.0394 4.41867 82.77 4.312 82.4287 4.312C82.0874 4.312 81.8154 4.41867 81.6127 4.632C81.4154 4.84 81.3167 5.14133 81.3167 5.536V8H80.4047V3.592H81.3167V4.096C81.466 3.91467 81.6554 3.77333 81.8847 3.672C82.1194 3.57067 82.3674 3.52 82.6287 3.52ZM88.7421 4.336V6.776C88.7421 6.94133 88.7795 7.06133 88.8541 7.136C88.9341 7.20533 89.0675 7.24 89.2541 7.24H89.8141V8H89.0941C88.6835 8 88.3688 7.904 88.1501 7.712C87.9315 7.52 87.8221 7.208 87.8221 6.776V4.336H87.3021V3.592H87.8221V2.496H88.7421V3.592H89.8141V4.336H88.7421ZM92.9347 3.52C93.2707 3.52 93.5694 3.592 93.8307 3.736C94.0974 3.88 94.3054 4.09333 94.4547 4.376C94.6094 4.65867 94.6867 5 94.6867 5.4V8H93.7827V5.536C93.7827 5.14133 93.684 4.84 93.4867 4.632C93.2894 4.41867 93.02 4.312 92.6787 4.312C92.3374 4.312 92.0654 4.41867 91.8627 4.632C91.6654 4.84 91.5667 5.14133 91.5667 5.536V8H90.6547V2.08H91.5667V4.104C91.7214 3.91733 91.916 3.77333 92.1507 3.672C92.3907 3.57067 92.652 3.52 92.9347 3.52ZM99.89 5.688C99.89 5.85333 99.8793 6.00267 99.858 6.136H96.49C96.5167 6.488 96.6473 6.77067 96.882 6.984C97.1167 7.19733 97.4047 7.304 97.746 7.304C98.2367 7.304 98.5833 7.09867 98.786 6.688H99.77C99.6367 7.09333 99.394 7.42667 99.042 7.688C98.6953 7.944 98.2633 8.072 97.746 8.072C97.3247 8.072 96.946 7.97867 96.61 7.792C96.2793 7.6 96.018 7.33333 95.826 6.992C95.6393 6.64533 95.546 6.24533 95.546 5.792C95.546 5.33867 95.6367 4.94133 95.818 4.6C96.0047 4.25333 96.2633 3.98667 96.594 3.8C96.93 3.61333 97.314 3.52 97.746 3.52C98.162 3.52 98.5327 3.61067 98.858 3.792C99.1833 3.97333 99.4367 4.22933 99.618 4.56C99.7993 4.88533 99.89 5.26133 99.89 5.688ZM98.938 5.4C98.9327 5.064 98.8127 4.79467 98.578 4.592C98.3433 4.38933 98.0527 4.288 97.706 4.288C97.3913 4.288 97.122 4.38933 96.898 4.592C96.674 4.78933 96.5407 5.05867 96.498 5.4H98.938Z" fill="white"/>
<path d="M39.77 16.168C39.546 15.7573 39.238 15.4447 38.846 15.23C38.454 15.0153 37.9967 14.908 37.474 14.908C36.8953 14.908 36.382 15.0387 35.934 15.3C35.486 15.5613 35.136 15.9347 34.884 16.42C34.632 16.9053 34.506 17.4653 34.506 18.1C34.506 18.7533 34.632 19.3227 34.884 19.808C35.1453 20.2933 35.5047 20.6667 35.962 20.928C36.4193 21.1893 36.9513 21.32 37.558 21.32C38.3047 21.32 38.916 21.124 39.392 20.732C39.868 20.3307 40.1807 19.7753 40.33 19.066H36.97V17.568H42.262V19.276C42.1313 19.9573 41.8513 20.5873 41.422 21.166C40.9927 21.7447 40.4373 22.2113 39.756 22.566C39.084 22.9113 38.328 23.084 37.488 23.084C36.5453 23.084 35.6913 22.874 34.926 22.454C34.17 22.0247 33.5727 21.432 33.134 20.676C32.7047 19.92 32.49 19.0613 32.49 18.1C32.49 17.1387 32.7047 16.28 33.134 15.524C33.5727 14.7587 34.17 14.166 34.926 13.746C35.6913 13.3167 36.5407 13.102 37.474 13.102C38.5753 13.102 39.532 13.3727 40.344 13.914C41.156 14.446 41.716 15.1973 42.024 16.168H39.77ZM47.4361 23.126C46.6894 23.126 46.0174 22.9627 45.4201 22.636C44.8228 22.3 44.3514 21.8287 44.0061 21.222C43.6701 20.6153 43.5021 19.9153 43.5021 19.122C43.5021 18.3287 43.6748 17.6287 44.0201 17.022C44.3748 16.4153 44.8554 15.9487 45.4621 15.622C46.0688 15.286 46.7454 15.118 47.4921 15.118C48.2388 15.118 48.9154 15.286 49.5221 15.622C50.1288 15.9487 50.6048 16.4153 50.9501 17.022C51.3048 17.6287 51.4821 18.3287 51.4821 19.122C51.4821 19.9153 51.3001 20.6153 50.9361 21.222C50.5814 21.8287 50.0961 22.3 49.4801 22.636C48.8734 22.9627 48.1921 23.126 47.4361 23.126ZM47.4361 21.418C47.7908 21.418 48.1221 21.334 48.4301 21.166C48.7474 20.9887 48.9994 20.7273 49.1861 20.382C49.3728 20.0367 49.4661 19.6167 49.4661 19.122C49.4661 18.3847 49.2701 17.82 48.8781 17.428C48.4954 17.0267 48.0241 16.826 47.4641 16.826C46.9041 16.826 46.4328 17.0267 46.0501 17.428C45.6768 17.82 45.4901 18.3847 45.4901 19.122C45.4901 19.8593 45.6721 20.4287 46.0361 20.83C46.4094 21.222 46.8761 21.418 47.4361 21.418ZM56.6438 23.126C55.8972 23.126 55.2252 22.9627 54.6278 22.636C54.0305 22.3 53.5592 21.8287 53.2138 21.222C52.8778 20.6153 52.7098 19.9153 52.7098 19.122C52.7098 18.3287 52.8825 17.6287 53.2278 17.022C53.5825 16.4153 54.0632 15.9487 54.6698 15.622C55.2765 15.286 55.9532 15.118 56.6998 15.118C57.4465 15.118 58.1232 15.286 58.7298 15.622C59.3365 15.9487 59.8125 16.4153 60.1578 17.022C60.5125 17.6287 60.6898 18.3287 60.6898 19.122C60.6898 19.9153 60.5078 20.6153 60.1438 21.222C59.7892 21.8287 59.3038 22.3 58.6878 22.636C58.0812 22.9627 57.3998 23.126 56.6438 23.126ZM56.6438 21.418C56.9985 21.418 57.3298 21.334 57.6378 21.166C57.9552 20.9887 58.2072 20.7273 58.3938 20.382C58.5805 20.0367 58.6738 19.6167 58.6738 19.122C58.6738 18.3847 58.4778 17.82 58.0858 17.428C57.7032 17.0267 57.2318 16.826 56.6718 16.826C56.1118 16.826 55.6405 17.0267 55.2578 17.428C54.8845 17.82 54.6978 18.3847 54.6978 19.122C54.6978 19.8593 54.8798 20.4287 55.2438 20.83C55.6172 21.222 56.0838 21.418 56.6438 21.418ZM65.4456 15.118C66.0242 15.118 66.5329 15.2347 66.9716 15.468C67.4102 15.692 67.7556 15.986 68.0076 16.35V15.244H69.9816V23.056C69.9816 23.7747 69.8369 24.414 69.5476 24.974C69.2582 25.5433 68.8242 25.9913 68.2456 26.318C67.6669 26.654 66.9669 26.822 66.1456 26.822C65.0442 26.822 64.1389 26.5653 63.4296 26.052C62.7296 25.5387 62.3329 24.8387 62.2396 23.952H64.1856C64.2882 24.3067 64.5076 24.5867 64.8436 24.792C65.1889 25.0067 65.6042 25.114 66.0896 25.114C66.6589 25.114 67.1209 24.9413 67.4756 24.596C67.8302 24.26 68.0076 23.7467 68.0076 23.056V21.852C67.7556 22.216 67.4056 22.5193 66.9576 22.762C66.5189 23.0047 66.0149 23.126 65.4456 23.126C64.7922 23.126 64.1949 22.958 63.6536 22.622C63.1122 22.286 62.6829 21.8147 62.3656 21.208C62.0576 20.592 61.9036 19.8873 61.9036 19.094C61.9036 18.31 62.0576 17.6147 62.3656 17.008C62.6829 16.4013 63.1076 15.9347 63.6396 15.608C64.1809 15.2813 64.7829 15.118 65.4456 15.118ZM68.0076 19.122C68.0076 18.646 67.9142 18.24 67.7276 17.904C67.5409 17.5587 67.2889 17.2973 66.9716 17.12C66.6542 16.9333 66.3136 16.84 65.9496 16.84C65.5856 16.84 65.2496 16.9287 64.9416 17.106C64.6336 17.2833 64.3816 17.5447 64.1856 17.89C63.9989 18.226 63.9056 18.6273 63.9056 19.094C63.9056 19.5607 63.9989 19.9713 64.1856 20.326C64.3816 20.6713 64.6336 20.9373 64.9416 21.124C65.2589 21.3107 65.5949 21.404 65.9496 21.404C66.3136 21.404 66.6542 21.3153 66.9716 21.138C67.2889 20.9513 67.5409 20.69 67.7276 20.354C67.9142 20.0087 68.0076 19.598 68.0076 19.122ZM74.1358 12.64V23H72.1758V12.64H74.1358ZM83.5623 18.954C83.5623 19.234 83.5437 19.486 83.5063 19.71H77.8363C77.883 20.27 78.079 20.7087 78.4243 21.026C78.7697 21.3433 79.1943 21.502 79.6983 21.502C80.4263 21.502 80.9443 21.1893 81.2523 20.564H83.3663C83.1423 21.3107 82.713 21.9267 82.0783 22.412C81.4437 22.888 80.6643 23.126 79.7403 23.126C78.9937 23.126 78.3217 22.9627 77.7243 22.636C77.1363 22.3 76.6743 21.8287 76.3383 21.222C76.0117 20.6153 75.8483 19.9153 75.8483 19.122C75.8483 18.3193 76.0117 17.6147 76.3383 17.008C76.665 16.4013 77.1223 15.9347 77.7103 15.608C78.2983 15.2813 78.975 15.118 79.7403 15.118C80.4777 15.118 81.1357 15.2767 81.7143 15.594C82.3023 15.9113 82.755 16.364 83.0723 16.952C83.399 17.5307 83.5623 18.198 83.5623 18.954ZM81.5323 18.394C81.523 17.89 81.341 17.4887 80.9863 17.19C80.6317 16.882 80.1977 16.728 79.6843 16.728C79.199 16.728 78.7883 16.8773 78.4523 17.176C78.1257 17.4653 77.925 17.8713 77.8503 18.394H81.5323ZM96.0149 16.252C96.0149 16.7747 95.8889 17.2647 95.6369 17.722C95.3942 18.1793 95.0069 18.548 94.4749 18.828C93.9522 19.108 93.2896 19.248 92.4869 19.248H90.8489V23H88.8889V13.228H92.4869C93.2429 13.228 93.8869 13.3587 94.4189 13.62C94.9509 13.8813 95.3476 14.2407 95.6089 14.698C95.8796 15.1553 96.0149 15.6733 96.0149 16.252ZM92.4029 17.666C92.9442 17.666 93.3456 17.5447 93.6069 17.302C93.8682 17.05 93.9989 16.7 93.9989 16.252C93.9989 15.3 93.4669 14.824 92.4029 14.824H90.8489V17.666H92.4029ZM99.6465 12.64V23H97.6865V12.64H99.6465ZM101.359 19.094C101.359 18.31 101.513 17.6147 101.821 17.008C102.138 16.4013 102.563 15.9347 103.095 15.608C103.636 15.2813 104.238 15.118 104.901 15.118C105.48 15.118 105.984 15.2347 106.413 15.468C106.852 15.7013 107.202 15.9953 107.463 16.35V15.244H109.437V23H107.463V21.866C107.211 22.23 106.861 22.5333 106.413 22.776C105.974 23.0093 105.466 23.126 104.887 23.126C104.234 23.126 103.636 22.958 103.095 22.622C102.563 22.286 102.138 21.8147 101.821 21.208C101.513 20.592 101.359 19.8873 101.359 19.094ZM107.463 19.122C107.463 18.646 107.37 18.24 107.183 17.904C106.996 17.5587 106.744 17.2973 106.427 17.12C106.11 16.9333 105.769 16.84 105.405 16.84C105.041 16.84 104.705 16.9287 104.397 17.106C104.089 17.2833 103.837 17.5447 103.641 17.89C103.454 18.226 103.361 18.6273 103.361 19.094C103.361 19.5607 103.454 19.9713 103.641 20.326C103.837 20.6713 104.089 20.9373 104.397 21.124C104.714 21.3107 105.05 21.404 105.405 21.404C105.769 21.404 106.11 21.3153 106.427 21.138C106.744 20.9513 106.996 20.69 107.183 20.354C107.37 20.0087 107.463 19.598 107.463 19.122ZM119.051 15.244L114.249 26.668H112.163L113.843 22.804L110.735 15.244H112.933L114.935 20.662L116.965 15.244H119.051Z" fill="white"/>
<g clip-path="url(#clip0)">
<path d="M4.36533 4.31985C3.58287 3.88738 2.66417 3.89738 1.88672 4.3261L10.9987 12.7319L14.0598 9.6708L4.36533 4.31985Z" fill="white"/>
<path d="M0.97498 5.1875C0.752493 5.55123 0.625 5.96746 0.625 6.40868V21.5903C0.625 22.0178 0.741243 22.4253 0.951231 22.7815L10.1145 13.6183L0.97498 5.1875Z" fill="white"/>
<path d="M18.1179 11.9119L15.1981 10.3008L11.917 13.5806L15.938 17.2892L18.1191 16.0855C18.9041 15.6505 19.3741 14.8705 19.3741 13.9981C19.3728 13.1256 18.9041 12.3457 18.1179 11.9119Z" fill="white"/>
<path d="M11.0339 14.4648L1.8457 23.6531C2.24443 23.8806 2.68191 24.0006 3.12188 24.0006C3.54686 24.0006 3.97433 23.8931 4.36556 23.6768L14.7862 17.9259L11.0339 14.4648Z" fill="white"/>
</g>
<defs>
<clipPath id="clip0">
<rect width="20" height="20" fill="white" transform="translate(0 4)"/>
</clipPath>
</defs>
</svg>
