<svg width="67" height="67" viewBox="0 0 67 67" fill="none" xmlns="http://www.w3.org/2000/svg">
<g clip-path="url(#clip0)">
<path d="M64.5566 23.4016V3.32775C64.5566 2.44518 64.206 1.59875 63.582 0.974676C62.9579 0.350602 62.1115 0 61.2289 0C60.3463 0 59.4999 0.350602 58.8758 0.974676C58.2517 1.59875 57.9011 2.44518 57.9011 3.32775V23.4016C56.9 24.1082 56.1497 25.1152 55.7591 26.2768C55.3684 27.4383 55.3577 28.694 55.7284 29.862C56.0991 31.0301 56.8319 32.0498 57.8209 32.7735C58.8098 33.4972 60.0034 33.8873 61.2289 33.8873C62.4543 33.8873 63.648 33.4972 64.6369 32.7735C65.6259 32.0498 66.3587 31.0301 66.7294 29.862C67.1001 28.694 67.0894 27.4383 66.6987 26.2768C66.3081 25.1152 65.5578 24.1082 64.5566 23.4016ZM61.2289 1.96158C61.5901 1.96193 61.9364 2.10556 62.1918 2.36096C62.4472 2.61635 62.5908 2.96264 62.5911 3.32383V7.99551H59.8667V3.32775C59.8663 3.14858 59.9013 2.97109 59.9696 2.80544C60.0379 2.63979 60.1381 2.48922 60.2646 2.36235C60.3912 2.23547 60.5414 2.13477 60.7069 2.066C60.8723 1.99724 61.0497 1.96175 61.2289 1.96158ZM61.2289 31.9284C60.3871 31.9277 59.5692 31.6481 58.9032 31.1332C58.2371 30.6184 57.7604 29.8974 57.5477 29.0829C57.3349 28.2684 57.398 27.4064 57.7271 26.6315C58.0563 25.8567 58.6329 25.2128 59.3668 24.8005C59.5186 24.7147 59.6448 24.5901 59.7327 24.4395C59.8205 24.2889 59.8667 24.1177 59.8667 23.9433V21.245H60.6518C60.8997 21.2269 61.1316 21.1156 61.3008 20.9336C61.4701 20.7515 61.5641 20.5121 61.5641 20.2636C61.5641 20.015 61.4701 19.7756 61.3008 19.5936C61.1316 19.4115 60.8997 19.3002 60.6518 19.2821H59.8667V15.6063H60.6518C60.8997 15.5882 61.1316 15.4769 61.3008 15.2948C61.4701 15.1128 61.5641 14.8734 61.5641 14.6248C61.5641 14.3763 61.4701 14.1369 61.3008 13.9548C61.1316 13.7728 60.8997 13.6615 60.6518 13.6434H59.8667V9.96625H62.5911V23.946C62.5911 24.1205 62.6374 24.2918 62.7255 24.4425C62.8136 24.5931 62.9402 24.7176 63.0923 24.8031C63.825 25.2161 64.4004 25.8601 64.7286 26.6345C65.0568 27.4089 65.1193 28.2701 64.9065 29.0839C64.6937 29.8976 64.2175 30.6179 63.5522 31.1325C62.8869 31.6471 62.07 31.927 61.2289 31.9284Z" fill="url(#paint0_linear)"/>
<path d="M48.0777 52.4023C44.6885 51.0832 41.4994 50.035 40.1372 49.5993V44.6829C41.8096 43.1662 43.2215 41.3734 44.0355 39.6984C44.3692 39.0088 44.6623 37.8939 44.924 36.3026C46.1659 36.1944 47.3262 35.6387 48.189 34.7389C49.262 33.6554 49.949 32.1217 50.178 30.3014C50.296 29.4955 50.2515 28.6742 50.0472 27.8858C51.0365 26.0537 54.8759 18.3814 53.2611 12.727C52.2535 9.19381 49.9425 7.8368 48.1824 7.31729C47.2952 7.06138 46.3729 6.94786 45.4501 6.98098C44.5615 4.8218 42.1786 1.81203 35.8123 1.04781C32.1273 0.60551 28.9605 1.59481 26.1719 2.46764C23.8923 3.17821 21.9281 3.79324 20.1105 3.54199C17.6241 3.20045 16.258 0.566252 16.2462 0.541389C16.1713 0.395864 16.0616 0.27115 15.9268 0.178394C15.7919 0.0856379 15.6362 0.0277287 15.4736 0.00984156C15.3109 -0.00804558 15.1463 0.0146466 14.9946 0.0758901C14.8428 0.137134 14.7086 0.235021 14.6039 0.360803C14.5084 0.479885 12.2393 3.30776 11.0066 8.06188C9.90082 12.3279 9.46506 19.0004 13.5152 26.7879C12.9276 27.7039 12.7182 28.8816 12.8975 30.3014C13.1265 32.1204 13.8135 33.6554 14.8866 34.7389C15.751 35.6401 16.9138 36.196 18.158 36.3026C18.4198 37.8939 18.7116 39.0088 19.0466 39.6984C19.8605 41.3734 21.2712 43.1662 22.9449 44.6829V49.594C21.5826 50.0298 18.3936 51.078 15.003 52.397C8.88797 54.7747 5.03416 56.8777 3.55152 58.6469C0.747207 61.9903 0 64.8509 0 66.0156C0 66.2762 0.10354 66.5262 0.287842 66.7105C0.472144 66.8948 0.722111 66.9983 0.982754 66.9983H62.0941C62.2231 66.9983 62.3509 66.9729 62.4702 66.9235C62.5894 66.8741 62.6977 66.8017 62.789 66.7105C62.8803 66.6192 62.9526 66.5109 63.002 66.3917C63.0514 66.2724 63.0768 66.1446 63.0768 66.0156C63.0768 64.8509 62.3296 61.9903 59.5319 58.6521C58.0479 56.8829 54.1941 54.78 48.0777 52.4023ZM24.9038 46.244C27.1468 47.7921 29.4721 48.6361 31.5371 48.6361C33.6021 48.6361 35.9288 47.7921 38.1717 46.244V50.1083C37.8498 50.7482 36.2454 53.3719 31.5371 53.3719C26.8288 53.3719 25.2349 50.7718 24.9038 50.107V46.244ZM12.887 8.6442C13.4139 6.56426 14.2465 4.57403 15.3577 2.73852C16.2135 3.81287 17.7013 5.19606 19.8422 5.48656C22.0943 5.79539 24.3569 5.09399 26.7516 4.34155C29.4852 3.48703 32.3105 2.60373 35.5807 2.99631C41.6316 3.72258 43.3498 6.62897 43.8366 8.29612C43.9046 8.52749 44.0552 8.72587 44.2597 8.85369C44.4642 8.98152 44.7085 9.02989 44.9463 8.98967C45.8683 8.87498 46.8042 8.95341 47.6943 9.21998C49.5263 9.7853 50.7695 11.1449 51.3741 13.2635C52.5728 17.4615 50.1061 23.3292 48.8289 25.9451C48.083 25.3091 47.074 24.9336 45.8597 24.842C45.7398 23.9679 45.3973 23.1392 44.8651 22.4355C41.9247 18.5633 41.2573 14.1704 41.2508 14.1272C41.2453 14.0874 41.237 14.0481 41.2259 14.0094C41.115 13.3167 40.7611 12.6861 40.2276 12.2306C39.6941 11.775 39.0159 11.5242 38.3143 11.5231H24.7612C23.9794 11.5241 23.2299 11.8353 22.6772 12.3882C22.1244 12.9412 21.8136 13.6908 21.813 14.4727V16.1529C20.5216 16.1326 19.2322 16.0452 17.95 15.8912C17.8093 15.8724 17.6662 15.8841 17.5305 15.9255C17.3947 15.9669 17.2695 16.037 17.1632 16.1311C17.0569 16.2252 16.9722 16.3411 16.9147 16.4708C16.8571 16.6006 16.8282 16.7412 16.8298 16.8831C16.8298 16.9224 16.8992 20.5354 17.119 24.8485C16.3903 24.9005 15.6789 25.0952 15.0253 25.4217C12.2026 19.7921 11.4829 14.1508 12.887 8.6442ZM23.7785 14.4753C23.7788 14.2148 23.8825 13.965 24.0667 13.7808C24.2509 13.5965 24.5007 13.4929 24.7612 13.4925H38.3143C38.5749 13.4929 38.8246 13.5965 39.0088 13.7808C39.1931 13.965 39.2967 14.2148 39.2971 14.4753V19.8667C39.2971 20.1275 39.1936 20.3776 39.0093 20.5621C38.825 20.7466 38.5751 20.8504 38.3143 20.8508H24.7612C24.5004 20.8504 24.2505 20.7466 24.0662 20.5621C23.882 20.3776 23.7785 20.1275 23.7785 19.8667V14.4753ZM20.8066 38.8387C20.6012 38.4147 20.2832 37.4267 19.9587 35.1288C19.8697 34.417 19.1199 34.1644 18.5035 34.3437C16.9515 34.3437 15.2189 33.0168 14.846 30.0515C14.7151 28.9614 14.8735 28.1449 15.3328 27.6227C15.9439 26.9305 17.0183 26.7852 17.8126 26.7852C18.4669 26.937 19.1892 26.4882 19.1356 25.7698C18.9537 22.5127 18.8608 19.516 18.8202 17.9614C19.5295 18.0229 20.5475 18.0922 21.8116 18.1184V19.8615C21.8123 20.6434 22.1231 21.3932 22.6758 21.9464C23.2285 22.4995 23.9779 22.811 24.7599 22.8123H38.3143C39.0278 22.8112 39.7167 22.5517 40.2537 22.0819C40.7906 21.6121 41.1393 20.9637 41.2351 20.2567C41.8132 21.443 42.5047 22.5706 43.3001 23.6237C43.7606 24.2372 43.987 24.995 43.9387 25.7606C43.8785 26.4816 44.606 26.9383 45.2616 26.7852C46.056 26.7852 47.1303 26.9305 47.7414 27.6227C48.2007 28.1462 48.3643 28.9614 48.2269 30.0515C47.8553 33.0168 46.1227 34.3437 44.5707 34.3437C43.9544 34.1592 43.2045 34.413 43.1155 35.1288C42.791 37.4241 42.473 38.4147 42.2676 38.8387C40.4722 42.5355 35.5021 46.6693 31.5371 46.6693C27.5721 46.6693 22.6033 42.5355 20.8066 38.8387ZM2.13955 65.0354C2.46408 63.8577 3.29242 62.0178 5.05117 59.9188C7.48254 57.0203 18.497 53.0762 23.4421 51.5033C24.298 52.8433 26.5645 55.3388 31.5371 55.3388C36.5098 55.3388 38.7776 52.8433 39.6334 51.4993C44.5772 53.0697 55.5982 57.0151 58.0244 59.9149C59.7857 62.0165 60.6141 63.8577 60.9373 65.0354H2.13955Z" fill="url(#paint1_linear)"/>
<path d="M28.0564 39.3032C28.1759 39.3511 28.3036 39.3749 28.4323 39.3733C28.561 39.3716 28.6882 39.3447 28.8064 39.2939C28.9247 39.2431 29.0318 39.1694 29.1216 39.0772C29.2114 38.9849 29.282 38.8759 29.3296 38.7563C29.5314 38.3426 29.8453 37.9939 30.2357 37.7501C30.626 37.5062 31.077 37.3769 31.5372 37.3769C31.9975 37.3769 32.4485 37.5062 32.8388 37.7501C33.2291 37.9939 33.543 38.3426 33.7448 38.7563C33.7929 38.876 33.8642 38.9852 33.9545 39.0774C34.0448 39.1697 34.1523 39.2432 34.2711 39.2939C34.3898 39.3446 34.5173 39.3713 34.6464 39.3727C34.7755 39.3741 34.9035 39.3501 35.0233 39.3019C35.1431 39.2538 35.2522 39.1826 35.3445 39.0923C35.4367 39.002 35.5103 38.8944 35.5609 38.7757C35.6116 38.657 35.6384 38.5294 35.6398 38.4004C35.6412 38.2713 35.6171 38.1432 35.569 38.0234C35.5271 37.9161 34.4999 35.4062 31.5372 35.4062C28.5746 35.4062 27.5486 37.9109 27.5067 38.0234C27.4108 38.2661 27.4147 38.5369 27.5177 38.7767C27.6206 39.0164 27.8143 39.2057 28.0564 39.3032Z" fill="url(#paint2_linear)"/>
<path d="M27.6116 27.3632C27.7077 27.1203 27.7034 26.8491 27.5996 26.6093C27.4958 26.3696 27.301 26.1809 27.058 26.0847C26.8151 25.9886 26.5439 25.9929 26.3041 26.0967C26.0644 26.2005 25.8757 26.3953 25.7795 26.6383C25.7795 26.6487 25.2666 27.6982 23.1977 27.5935C22.9458 27.5944 22.7037 27.6918 22.5215 27.8657C22.3392 28.0396 22.2306 28.2768 22.218 28.5285C22.2054 28.7801 22.2898 29.0269 22.4538 29.2182C22.6178 29.4094 22.849 29.5305 23.0995 29.5564C23.2304 29.563 23.3534 29.5656 23.4751 29.5656C26.0413 29.5748 27.2805 28.2047 27.6116 27.3632Z" fill="url(#paint3_linear)"/>
<path d="M13.9428 38.0681C13.7386 37.9062 13.4784 37.832 13.2195 37.862C12.9606 37.8919 12.7242 38.0235 12.5623 38.2277C12.506 38.2997 11.166 40.0192 11.166 42.7018C11.166 44.1125 11.6463 45.1449 12.0585 46.061C12.4511 46.9338 12.8358 47.7621 12.8358 48.9399C12.8289 49.073 12.8492 49.2062 12.8954 49.3312C12.9416 49.4563 13.0128 49.5706 13.1046 49.6673C13.1964 49.764 13.3069 49.841 13.4295 49.8936C13.552 49.9462 13.6839 49.9733 13.8172 49.9733C13.9506 49.9733 14.0825 49.9462 14.205 49.8936C14.3275 49.841 14.438 49.764 14.5298 49.6673C14.6216 49.5706 14.6928 49.4563 14.739 49.3312C14.7853 49.2062 14.8055 49.073 14.7987 48.9399C14.7987 47.3316 14.2909 46.2219 13.8421 45.2431C13.46 44.4069 13.1289 43.6845 13.1289 42.7031C13.1186 41.544 13.4584 40.4088 14.1038 39.446C14.2647 39.2418 14.3382 38.9821 14.308 38.7238C14.2778 38.4655 14.1465 38.2297 13.9428 38.0681Z" fill="url(#paint4_linear)"/>
<path d="M5.91329 52.0615C5.92628 52.3131 6.03535 52.55 6.21798 52.7235C6.40061 52.8969 6.64287 52.9936 6.89473 52.9936C7.1466 52.9936 7.38885 52.8969 7.57148 52.7235C7.75412 52.55 7.86318 52.3131 7.87618 52.0615C7.87618 50.452 7.36844 49.3436 6.9209 48.3648C6.5388 47.5286 6.20772 46.8062 6.20772 45.8235C6.20625 45.0654 6.34926 44.3139 6.62909 43.6093C6.67669 43.489 6.70013 43.3605 6.69808 43.2312C6.69602 43.1018 6.66851 42.9742 6.61711 42.8554C6.56571 42.7367 6.49143 42.6293 6.39851 42.5393C6.30559 42.4493 6.19585 42.3784 6.07555 42.3308C5.95526 42.2832 5.82677 42.2598 5.69742 42.2618C5.56807 42.2639 5.44038 42.2914 5.32166 42.3428C5.20295 42.3942 5.09551 42.4685 5.0055 42.5614C4.91549 42.6543 4.84466 42.7641 4.79706 42.8844C4.42656 43.8199 4.23695 44.8172 4.23829 45.8235C4.23829 47.2341 4.712 48.2692 5.12944 49.1826C5.53641 50.0568 5.91329 50.8812 5.91329 52.0615Z" fill="url(#paint5_linear)"/>
<path d="M48.2738 48.9391C48.2669 49.0722 48.2872 49.2054 48.3334 49.3305C48.3796 49.4555 48.4508 49.5699 48.5426 49.6665C48.6344 49.7632 48.7449 49.8402 48.8674 49.8928C48.99 49.9454 49.1219 49.9725 49.2552 49.9725C49.3885 49.9725 49.5205 49.9454 49.643 49.8928C49.7655 49.8402 49.876 49.7632 49.9678 49.6665C50.0596 49.5699 50.1308 49.4555 50.177 49.3305C50.2232 49.2054 50.2435 49.0722 50.2367 48.9391C50.2367 47.7614 50.6148 46.9343 51.014 46.0602C51.4314 45.1442 51.9051 44.1117 51.9051 42.701C51.9051 40.0184 50.5664 38.2989 50.5088 38.2269C50.4301 38.1225 50.3312 38.0348 50.2181 37.969C50.1049 37.9033 49.9798 37.8608 49.85 37.844C49.7203 37.8273 49.5884 37.8366 49.4623 37.8715C49.3362 37.9063 49.2183 37.9661 49.1156 38.0471C49.0128 38.1281 48.9273 38.2289 48.864 38.3434C48.8008 38.4579 48.761 38.584 48.7471 38.7141C48.7331 38.8442 48.7453 38.9758 48.7829 39.1011C48.8205 39.2264 48.8828 39.343 48.966 39.4439C49.611 40.4069 49.9503 41.5421 49.9396 42.701C49.9396 43.6825 49.6098 44.4022 49.2264 45.241C48.7815 46.2198 48.2738 47.3295 48.2738 48.9391Z" fill="url(#paint6_linear)"/>
<path d="M55.1963 52.0615C55.2093 52.3131 55.3184 52.55 55.501 52.7234C55.6836 52.8969 55.9259 52.9936 56.1777 52.9936C56.4296 52.9936 56.6719 52.8969 56.8545 52.7234C57.0371 52.55 57.1462 52.3131 57.1592 52.0615C57.1592 50.8838 57.5361 50.0568 57.9352 49.1826C58.3539 48.2666 58.8276 47.2341 58.8276 45.8235C58.829 44.8172 58.6394 43.8199 58.2689 42.8844C58.1727 42.6414 57.984 42.4466 57.7443 42.3428C57.5045 42.239 57.2333 42.2347 56.9904 42.3308C56.7474 42.427 56.5526 42.6157 56.4488 42.8554C56.345 43.0952 56.3407 43.3664 56.4368 43.6093C56.7167 44.3139 56.8597 45.0654 56.8582 45.8235C56.8582 46.8062 56.5271 47.5246 56.145 48.3648C55.704 49.3436 55.1963 50.452 55.1963 52.0615Z" fill="url(#paint7_linear)"/>
<path d="M35.4627 27.3632C35.3665 27.1203 35.3708 26.8491 35.4746 26.6093C35.5785 26.3696 35.7733 26.1809 36.0162 26.0847C36.2591 25.9886 36.5303 25.9929 36.7701 26.0967C37.0099 26.2005 37.1986 26.3953 37.2947 26.6383C37.2947 26.6487 37.8077 27.6982 39.8766 27.5935C40.1285 27.5944 40.3705 27.6918 40.5528 27.8657C40.735 28.0396 40.8436 28.2768 40.8562 28.5285C40.8688 28.7801 40.7844 29.0269 40.6204 29.2182C40.4564 29.4094 40.2253 29.5305 39.9747 29.5564C39.8438 29.563 39.7208 29.5656 39.5991 29.5656C37.033 29.5748 35.7951 28.2047 35.4627 27.3632Z" fill="url(#paint8_linear)"/>
</g>
<defs>
<linearGradient id="paint0_linear" x1="55.458" y1="14.1197" x2="66.9998" y2="14.1197" gradientUnits="userSpaceOnUse">
<stop stop-color="#11CDD6"/>
<stop offset="1" stop-color="#3DB5E6"/>
</linearGradient>
<linearGradient id="paint1_linear" x1="5.22177e-07" y1="27.9182" x2="63.0768" y2="27.9182" gradientUnits="userSpaceOnUse">
<stop stop-color="#11CDD6"/>
<stop offset="1" stop-color="#3DB5E6"/>
</linearGradient>
<linearGradient id="paint2_linear" x1="27.4375" y1="37.0592" x2="35.6398" y2="37.0592" gradientUnits="userSpaceOnUse">
<stop stop-color="#11CDD6"/>
<stop offset="1" stop-color="#3DB5E6"/>
</linearGradient>
<linearGradient id="paint3_linear" x1="22.2168" y1="27.4948" x2="27.6807" y2="27.4948" gradientUnits="userSpaceOnUse">
<stop stop-color="#11CDD6"/>
<stop offset="1" stop-color="#3DB5E6"/>
</linearGradient>
<linearGradient id="paint4_linear" x1="11.166" y1="42.9046" x2="14.8" y2="42.9046" gradientUnits="userSpaceOnUse">
<stop stop-color="#11CDD6"/>
<stop offset="1" stop-color="#3DB5E6"/>
</linearGradient>
<linearGradient id="paint5_linear" x1="4.23828" y1="46.7333" x2="7.87618" y2="46.7333" gradientUnits="userSpaceOnUse">
<stop stop-color="#11CDD6"/>
<stop offset="1" stop-color="#3DB5E6"/>
</linearGradient>
<linearGradient id="paint6_linear" x1="48.2725" y1="42.8929" x2="51.9051" y2="42.8929" gradientUnits="userSpaceOnUse">
<stop stop-color="#11CDD6"/>
<stop offset="1" stop-color="#3DB5E6"/>
</linearGradient>
<linearGradient id="paint7_linear" x1="55.1963" y1="46.7333" x2="58.8276" y2="46.7333" gradientUnits="userSpaceOnUse">
<stop stop-color="#11CDD6"/>
<stop offset="1" stop-color="#3DB5E6"/>
</linearGradient>
<linearGradient id="paint8_linear" x1="35.3936" y1="27.4948" x2="40.8574" y2="27.4948" gradientUnits="userSpaceOnUse">
<stop stop-color="#11CDD6"/>
<stop offset="1" stop-color="#3DB5E6"/>
</linearGradient>
<clipPath id="clip0">
<rect width="67" height="67" fill="white"/>
</clipPath>
</defs>
</svg>
