<svg width="59" height="59" viewBox="0 0 59 59" fill="none" xmlns="http://www.w3.org/2000/svg">
<path d="M57.7564 12.3778L46.5532 1.24161C46.3672 1.05683 46.1156 0.953125 45.8534 0.953125C45.5911 0.953125 45.3395 1.05683 45.1535 1.24161L37.4507 8.89906L36.7508 8.20213C36.5644 8.01776 36.3127 7.91435 36.0505 7.91435C35.7882 7.91435 35.5366 8.01776 35.3501 8.20213L32.5515 10.9859C32.367 11.1705 32.2633 11.4209 32.2633 11.6819C32.2633 11.9429 32.367 12.1932 32.5515 12.3778L33.2553 13.0777L3.56362 42.923C2.73646 43.7431 2.07991 44.719 1.63186 45.7942C1.18381 46.8694 0.953125 48.0227 0.953125 49.1876C0.953125 50.3524 1.18381 51.5057 1.63186 52.5809C2.07991 53.6561 2.73646 54.632 3.56362 55.4521C5.23985 57.1155 7.5056 58.0489 9.86707 58.0489C12.2285 58.0489 14.4943 57.1155 16.1705 55.4521L45.8573 25.6069L46.5532 26.2959C46.7395 26.4808 46.9912 26.5845 47.2536 26.5845C47.516 26.5845 47.7678 26.4808 47.954 26.2959L50.7546 23.5111C50.9391 23.3265 51.0428 23.0762 51.0428 22.8152C51.0428 22.5541 50.9391 22.3038 50.7546 22.1192L50.0537 21.4282L57.7564 13.7717C57.8481 13.6803 57.9208 13.5717 57.9704 13.4521C58.0201 13.3325 58.0456 13.2043 58.0456 13.0748C58.0456 12.9453 58.0201 12.8171 57.9704 12.6975C57.9208 12.5779 57.8481 12.4693 57.7564 12.3778ZM44.4526 15.8586L51.4515 8.89808L52.8513 10.29L45.8494 17.2515L44.4526 15.8586ZM41.652 13.0748L48.6539 6.11328L50.0547 7.50617L43.0528 14.4667L41.652 13.0748ZM45.8534 3.32947L47.2541 4.72138L40.2513 11.6829L38.8515 10.291L45.8534 3.32947ZM14.7668 54.0602C13.4629 55.3528 11.7011 56.078 9.8651 56.078C8.02906 56.078 6.26733 55.3528 4.9634 54.0602C4.32017 53.4222 3.80963 52.6632 3.46122 51.8269C3.11282 50.9905 2.93344 50.0935 2.93344 49.1876C2.93344 48.2816 3.11282 47.3846 3.46122 46.5483C3.80963 45.712 4.32017 44.9529 4.9634 44.3149L34.6541 14.4706L44.4575 24.2159L14.7668 54.0602ZM47.2512 24.211L34.6502 11.6829L36.05 10.291L48.65 22.8201L47.2512 24.211ZM48.651 20.0353L47.2502 18.6434L54.256 11.6829L55.6567 13.0748L48.651 20.0353Z" fill="url(#paint0_linear)"/>
<defs>
<linearGradient id="paint0_linear" x1="0.953125" y1="24.743" x2="58.0456" y2="24.743" gradientUnits="userSpaceOnUse">
<stop stop-color="#11CDD6"/>
<stop offset="1" stop-color="#3DB5E6"/>
</linearGradient>
</defs>
</svg>
