<svg width="12" height="11" viewBox="0 0 12 11" fill="none" xmlns="http://www.w3.org/2000/svg">
<path d="M0.625 4.75C0.46875 4.90625 0.46875 5.125 0.625 5.28125L5.21875 9.90625C5.34375 10.0625 5.59375 10.0625 5.75 9.90625L6.34375 9.28125C6.5 9.125 6.5 8.90625 6.34375 8.75L2.65625 5L6.34375 1.28125C6.5 1.125 6.5 0.875 6.34375 0.75L5.75 0.125C5.59375 -0.03125 5.34375 -0.03125 5.21875 0.125L0.625 4.75ZM5.625 5.28125L10.2188 9.90625C10.3438 10.0625 10.5938 10.0625 10.75 9.90625L11.3438 9.28125C11.5 9.125 11.5 8.90625 11.3438 8.75L7.65625 5L11.3438 1.28125C11.5 1.125 11.5 0.875 11.3438 0.75L10.75 0.125C10.5938 -0.03125 10.3438 -0.03125 10.2188 0.125L5.625 4.75C5.46875 4.90625 5.46875 5.125 5.625 5.28125Z" fill="#283848"/>
</svg>
