<svg width="71" height="71" viewBox="0 0 71 71" fill="none" xmlns="http://www.w3.org/2000/svg">
<g clip-path="url(#clip0)">
<path d="M60.3467 22.0298C64.3981 17.9785 65.2884 11.6533 62.5116 6.64805C62.2332 6.14592 61.6 5.9644 61.0976 6.24327C60.5953 6.52186 60.4141 7.15504 60.6928 7.6573C62.8521 11.5494 62.3653 16.3928 59.5741 19.7865L44.3391 4.55147C48.2301 1.34454 53.7563 1.28478 57.689 4.22268C58.1492 4.56645 58.8011 4.47215 59.1447 4.0119C59.4884 3.55178 59.3941 2.90003 58.9339 2.55626C53.8283 -1.25805 46.6422 -0.766041 42.0965 3.77976C37.0533 8.82298 37.0526 16.986 42.0965 22.0298C47.1397 27.0729 55.3028 27.0736 60.3467 22.0298ZM42.8672 6.02125L58.1042 21.2584C53.8562 24.7637 47.5398 24.5315 43.5674 20.5591C39.571 16.5627 39.3647 10.2568 42.8672 6.02125ZM60.6138 34.8973H41.4267C41.3065 31.9367 40.0783 29.1039 37.9681 26.9938L27.0159 16.0417C22.3962 11.4218 14.879 11.4217 10.2592 16.0417C5.62885 20.6719 5.62801 28.1674 10.2592 32.7984L12.3582 34.8973H12.252C10.0009 34.8973 8.30605 36.9401 8.71499 39.1491L9.1048 41.2544C9.42041 42.9593 10.9078 44.1967 12.6418 44.1967H13.5449C14.0937 49.2719 15.4599 61.9098 15.9878 66.7935C16.122 68.0353 16.7297 69.1536 17.6986 69.9423C18.1468 70.3072 18.8014 70.2351 19.1617 69.7924C19.5243 69.347 19.4572 68.6919 19.0119 68.3293C18.4704 67.8885 18.1309 67.2636 18.0559 66.5698L17.8341 64.5179H25.1017V68.92H23.1625C22.5881 68.92 22.1225 69.3857 22.1225 69.9601C22.1225 70.5345 22.5881 71.0001 23.1625 71.0001H52.1924C54.6046 71.0001 56.6192 69.1916 56.8785 66.7935C57.3822 62.1343 58.808 48.9456 59.3213 44.1967H60.2244C61.9582 44.1967 63.4457 42.9593 63.7613 41.2544L64.151 39.1491C64.5605 36.9356 62.8603 34.8973 60.6138 34.8973ZM36.4972 28.4646C38.2169 30.1843 39.2257 32.4864 39.3444 34.8973H20.5832L31.7566 23.724L36.4972 28.4646ZM11.7299 31.3275C7.91222 27.5098 7.9118 21.3305 11.7299 17.5123C15.5475 13.6947 21.7267 13.6942 25.545 17.5123L30.2857 22.2531L17.6416 34.8973H15.2995L11.7299 31.3275ZM35.3927 68.92H27.1814V64.5179H35.3927V68.92ZM45.6841 68.92H37.4729V64.5179H45.6841V68.92ZM54.8099 66.5698C54.6652 67.9097 53.5396 68.92 52.1919 68.92H47.7642V64.5179H55.0318L54.8099 66.5698ZM55.2567 62.4378H17.6088L15.6369 44.1967H57.2288L55.2567 62.4378ZM62.1053 38.7706L61.7155 40.8759C61.5824 41.5949 60.955 42.1167 60.2238 42.1167C60.9733 42.1167 13.5391 42.1167 12.6415 42.1167C11.9103 42.1167 11.2829 41.5949 11.1498 40.8759L10.76 38.7706C10.5872 37.8372 11.3041 36.9774 12.2517 36.9774H60.6138C61.0658 36.9774 61.4909 37.1768 61.78 37.5242C62.069 37.8717 62.1877 38.326 62.1053 38.7706Z" fill="url(#paint0_linear)"/>
</g>
<defs>
<linearGradient id="paint0_linear" x1="6.78613" y1="29.5834" x2="64.2121" y2="29.5834" gradientUnits="userSpaceOnUse">
<stop stop-color="#11CDD6"/>
<stop offset="1" stop-color="#3DB5E6"/>
</linearGradient>
<clipPath id="clip0">
<rect width="71" height="71" fill="white"/>
</clipPath>
</defs>
</svg>
