<svg width="21" height="22" viewBox="0 0 21 22" fill="none" xmlns="http://www.w3.org/2000/svg">
<path d="M6.68555 10.0977C6.48047 9.89258 6.15234 9.89258 5.98828 10.0977L5.04492 11C4.83984 11.2051 4.83984 11.5332 5.04492 11.6973L8.77734 15.4707C8.94141 15.6758 9.26953 15.6758 9.47461 15.4707L16.5293 8.45703C16.7344 8.25195 16.7344 7.92383 16.5293 7.75977L15.627 6.81641C15.4219 6.61133 15.1348 6.61133 14.9297 6.81641L9.14648 12.5586L6.68555 10.0977ZM19.1133 4.06836L11.2383 0.787109C11.0332 0.705078 10.7051 0.664062 10.5 0.664062C10.2539 0.664062 9.92578 0.705078 9.7207 0.787109L1.8457 4.06836C1.10742 4.39648 0.65625 5.09375 0.65625 5.87305C0.65625 14.0352 5.33203 19.6543 9.7207 21.5C10.2129 21.7051 10.7461 21.7051 11.2383 21.5C14.7656 20.0234 20.3438 14.9785 20.3438 5.87305C20.3438 5.09375 19.8516 4.39648 19.1133 4.06836ZM10.5 19.6543C6.48047 18.0137 2.625 12.8457 2.625 5.87305L10.5 2.5918L18.375 5.87305C18.375 13.0098 14.3145 18.0547 10.5 19.6543Z" fill="white"/>
</svg>
