<svg width="21" height="22" viewBox="0 0 21 22" fill="none" xmlns="http://www.w3.org/2000/svg">
<path d="M10.1719 4.89062C7.99805 4.89062 6.23438 6.6543 6.23438 8.82812C6.23438 11.002 7.99805 12.7656 10.1719 12.7656C12.3457 12.7656 14.1094 11.002 14.1094 8.82812C14.1094 6.6543 12.3457 4.89062 10.1719 4.89062ZM10.1719 10.7969C9.06445 10.7969 8.20312 9.93555 8.20312 8.82812C8.20312 7.76172 9.06445 6.85938 10.1719 6.85938C11.2383 6.85938 12.1406 7.76172 12.1406 8.82812C12.1406 9.93555 11.2383 10.7969 10.1719 10.7969ZM10.1719 0.953125C4.55273 0.953125 0 5.50586 0 11.125C0 16.7441 4.55273 21.2969 10.1719 21.2969C15.791 21.2969 20.3438 16.7441 20.3438 11.125C20.3438 5.50586 15.791 0.953125 10.1719 0.953125ZM10.1719 19.3281C8.12109 19.3281 6.23438 18.5898 4.79883 17.3594C5.41406 16.416 6.48047 15.7598 7.66992 15.7598C8.53125 16.0059 9.35156 16.1289 10.1719 16.1289C10.9512 16.1289 11.7715 16.0059 12.6328 15.7598C13.8223 15.8008 14.8887 16.416 15.5039 17.3594C14.0684 18.5898 12.1816 19.3281 10.1719 19.3281ZM16.8164 15.8828C15.832 14.6113 14.2734 13.75 12.5098 13.75C12.0996 13.75 11.4434 14.1602 10.1719 14.1602C8.85938 14.1602 8.20312 13.75 7.79297 13.75C6.0293 13.75 4.4707 14.6113 3.48633 15.8828C2.50195 14.5703 1.96875 12.9297 1.96875 11.125C1.96875 6.61328 5.61914 2.92188 10.1719 2.92188C14.6836 2.92188 18.375 6.61328 18.375 11.125C18.375 12.9297 17.8008 14.5703 16.8164 15.8828Z" fill="white"/>
</svg>
